{
  "source": "C:\\Users\\Peter\\Desktop\\stuff\\MIUN\\quantitative_research\\video_compression\\videos\\UVG\\HoneyBee_1920x1080_120fps_420_8bit_YUV.y4m",
  "output": "C:\\Users\\Peter\\Desktop\\stuff\\MIUN\\quantitative_research\\video_compression\\compressed_videos\\UVG\\hevc\\2.5\\HoneyBee_1920x1080_120fps_420_8bit_YUV_hevc.mp4",
  "codec": "hevc",
  "ok": "[yuv4mpegpipe @ 00000216447c6740] Stream #0: not enough frames to estimate rate; consider increasing probesize\nInput #0, yuv4mpegpipe, from 'C:\\Users\\Peter\\Desktop\\stuff\\MIUN\\quantitative_research\\video_compression\\videos\\UVG\\HoneyBee_1920x1080_120fps_420_8bit_YUV.y4m':\n  Duration: 00:00:05.00, start: 0.000000, bitrate: 2985989 kb/s\n  Stream #0:0: Video: rawvideo (I420 / 0x30323449), yuv420p(progressive), 1920x1080, 120 fps, 120 tbr, 120 tbn\n[out#0/mp4 @ 00000216447c9ac0] Codec AVOption b:a (set bitrate (in bits/s)) has not been used for any stream. The most likely reason is either wrong type (e.g. a video option with no video streams) or that it is a private option of some decoder which was not actually used for any stream.\nStream mapping:\n  Stream #0:0 -> #0:0 (rawvideo (native) -> hevc (libx265))\nPress [q] to stop, [?] for help\n[libx265 @ 00000216447ccb00] Unknown option: \"aq-mode.\nx265 [info]: HEVC encoder version 4.1+190-8f11c33ac\nx265 [info]: build info [Windows][GCC 15.1.0][64 bit] 10bit\nx265 [info]: using cpu capabilities: MMX2 SSE2Fast LZCNT SSSE3 SSE4.2 AVX FMA3 BMI2 AVX2\nx265 [info]: Main 10 profile, Level-5 (Main tier)\nx265 [info]: Thread pool created using 12 threads\nx265 [info]: Slices                              : 1\nx265 [info]: frame threads / pool features       : 3 / wpp(17 rows)\nx265 [info]: Coding QT: max CU size, min CU size : 64 / 8\nx265 [info]: Residual QT: max TU size, max depth : 32 / 1 inter / 1 intra\nx265 [info]: ME / range / subpel / merge         : star / 57 / 3 / 3\nx265 [info]: Keyframe min / max / scenecut / bias  : 25 / 250 / 40 / 5.00 \nx265 [info]: Lookahead / bframes / badapt        : 25 / 4 / 2\nx265 [info]: b-pyramid / weightp / weightb       : 1 / 1 / 0\nx265 [info]: References / ref-limit  cu / depth  : 4 / on / on\nx265 [info]: AQ: mode / str / qg-size / cu-tree  : 2 / 1.0 / 32 / 1\nx265 [info]: Rate Control / qCompress            : ABR-2500 kbps / 0.60\nx265 [info]: VBV/HRD buffer / max-rate / init    : 2500 / 2500 / 0.750\nx265 [info]: tools: rect limit-modes rd=4 psy-rd=2.00 rdoq=2 psy-rdoq=1.00\nx265 [info]: tools: rskip mode=1 signhide tmvp strong-intra-smoothing lslices=4\nx265 [info]: tools: deblock sao dhdr10-info\nOutput #0, mp4, to 'C:\\Users\\Peter\\Desktop\\stuff\\MIUN\\quantitative_research\\video_compression\\compressed_videos\\UVG\\hevc\\2.5\\HoneyBee_1920x1080_120fps_420_8bit_YUV_hevc.mp4':\n  Metadata:\n    encoder         : Lavf62.3.100\n  Stream #0:0: Video: hevc (hev1 / 0x31766568), yuv420p10le(tv, progressive), 1920x1080, q=2-31, 2500 kb/s, 120 fps, 15360 tbn\n    Metadata:\n      encoder         : Lavc62.11.100 libx265\n    Side data:\n      cpb: bitrate max/min/avg: 2500000/0/2500000 buffer size: 2500000 vbv_delay: N/A\nframe=    0 fps=0.0 q=0.0 size=       0KiB time=N/A bitrate=N/A speed=N/A elapsed=0:00:00.50    \nframe=    0 fps=0.0 q=0.0 size=       0KiB time=N/A bitrate=N/A speed=N/A elapsed=0:00:01.01    \nframe=    0 fps=0.0 q=0.0 size=       0KiB time=N/A bitrate=N/A speed=N/A elapsed=0:00:01.53    \nframe=    0 fps=0.0 q=0.0 size=       0KiB time=N/A bitrate=N/A speed=N/A elapsed=0:00:02.05    \nframe=    2 fps=0.8 q=50.9 size=       0KiB time=00:00:00.00 bitrate=N/A speed=   0x elapsed=0:00:02.56    \nframe=    4 fps=1.3 q=51.0 size=       0KiB time=00:00:00.01 bitrate=  21.1kbits/s speed=0.0054x elapsed=0:00:03.08    \nframe=    7 fps=1.9 q=40.4 size=       0KiB time=00:00:00.04 bitrate=   8.4kbits/s speed=0.0116x elapsed=0:00:03.60    \nframe=    9 fps=2.2 q=44.6 size=       0KiB time=00:00:00.05 bitrate=   6.0kbits/s speed=0.0142x elapsed=0:00:04.11    \nframe=   11 fps=2.4 q=46.0 size=       0KiB time=00:00:00.07 bitrate=   4.7kbits/s speed=0.0162x elapsed=0:00:04.63    \nframe=   14 fps=2.7 q=45.0 size=       0KiB time=00:00:00.10 bitrate=   3.5kbits/s speed=0.0194x elapsed=0:00:05.14    \nframe=   15 fps=2.6 q=44.9 size=       0KiB time=00:00:00.10 bitrate=   3.2kbits/s speed=0.0191x elapsed=0:00:05.66    \nframe=   18 fps=2.9 q=43.9 size=       0KiB time=00:00:00.13 bitrate=   2.6kbits/s speed=0.0215x elapsed=0:00:06.18    \nframe=   20 fps=3.0 q=42.7 size=       0KiB time=00:00:00.15 bitrate=   2.3kbits/s speed=0.0224x elapsed=0:00:06.69    \nframe=   22 fps=3.0 q=34.4 size=       0KiB time=00:00:00.16 bitrate=   2.1kbits/s speed=0.0231x elapsed=0:00:07.21    \nframe=   24 fps=3.1 q=42.8 size=       0KiB time=00:00:00.18 bitrate=   1.9kbits/s speed=0.0237x elapsed=0:00:07.72    \nframe=   26 fps=3.2 q=40.8 size=       0KiB time=00:00:00.20 bitrate=   1.8kbits/s speed=0.0243x elapsed=0:00:08.24    \nframe=   28 fps=3.2 q=40.7 size=       0KiB time=00:00:00.21 bitrate=   1.6kbits/s speed=0.0248x elapsed=0:00:08.75    \nframe=   30 fps=3.2 q=39.6 size=       0KiB time=00:00:00.23 bitrate=   1.5kbits/s speed=0.0252x elapsed=0:00:09.27    \nframe=   32 fps=3.3 q=32.6 size=       0KiB time=00:00:00.25 bitrate=   1.4kbits/s speed=0.0255x elapsed=0:00:09.79    \nframe=   34 fps=3.3 q=39.7 size=       0KiB time=00:00:00.26 bitrate=   1.3kbits/s speed=0.0259x elapsed=0:00:10.30    \nframe=   36 fps=3.3 q=38.7 size=       0KiB time=00:00:00.28 bitrate=   1.2kbits/s speed=0.0262x elapsed=0:00:10.82    \nframe=   39 fps=3.4 q=38.7 size=       0KiB time=00:00:00.30 bitrate=   1.1kbits/s speed=0.0272x elapsed=0:00:11.32    \nframe=   41 fps=3.5 q=37.8 size=       0KiB time=00:00:00.32 bitrate=   1.1kbits/s speed=0.0274x elapsed=0:00:11.85    \nframe=   43 fps=3.5 q=37.7 size=       0KiB time=00:00:00.34 bitrate=   1.0kbits/s speed=0.0276x elapsed=0:00:12.36    \nframe=   44 fps=3.4 q=37.7 size=       0KiB time=00:00:00.35 bitrate=   1.0kbits/s speed=0.0271x elapsed=0:00:12.91    \nframe=   44 fps=3.3 q=37.7 size=       0KiB time=00:00:00.35 bitrate=   1.0kbits/s speed=0.026x elapsed=0:00:13.44    \nframe=   45 fps=3.2 q=37.7 size=       0KiB time=00:00:00.35 bitrate=   1.0kbits/s speed=0.0257x elapsed=0:00:13.95    \nframe=   46 fps=3.2 q=36.9 size=       0KiB time=00:00:00.36 bitrate=   1.0kbits/s speed=0.0253x elapsed=0:00:14.47    \nframe=   47 fps=3.1 q=30.5 size=       0KiB time=00:00:00.37 bitrate=   0.9kbits/s speed=0.025x elapsed=0:00:15.00    \nframe=   49 fps=3.2 q=36.8 size=       0KiB time=00:00:00.39 bitrate=   0.9kbits/s speed=0.0253x elapsed=0:00:15.50    \nframe=   50 fps=3.1 q=35.6 size=       0KiB time=00:00:00.40 bitrate=   0.9kbits/s speed=0.0249x elapsed=0:00:16.03    \nframe=   52 fps=3.1 q=29.7 size=       0KiB time=00:00:00.41 bitrate=   0.8kbits/s speed=0.0252x elapsed=0:00:16.54    \nframe=   52 fps=3.0 q=29.7 size=       0KiB time=00:00:00.41 bitrate=   0.8kbits/s speed=0.0244x elapsed=0:00:17.07    \nframe=   54 fps=3.1 q=35.8 size=       0KiB time=00:00:00.43 bitrate=   0.8kbits/s speed=0.0246x elapsed=0:00:17.58    \nframe=   54 fps=3.0 q=35.8 size=       0KiB time=00:00:00.43 bitrate=   0.8kbits/s speed=0.0239x elapsed=0:00:18.09    \nframe=   55 fps=3.0 q=34.6 size=       0KiB time=00:00:00.44 bitrate=   0.8kbits/s speed=0.0237x elapsed=0:00:18.62    \nframe=   55 fps=2.9 q=34.6 size=       0KiB time=00:00:00.44 bitrate=   0.8kbits/s speed=0.0231x elapsed=0:00:19.14    \nframe=   56 fps=2.8 q=34.6 size=       0KiB time=00:00:00.45 bitrate=   0.8kbits/s speed=0.0229x elapsed=0:00:19.67    \nframe=   57 fps=2.8 q=29.5 size=       0KiB time=00:00:00.45 bitrate=   0.8kbits/s speed=0.0227x elapsed=0:00:20.20    \nframe=   59 fps=2.8 q=34.7 size=       0KiB time=00:00:00.47 bitrate=   0.7kbits/s speed=0.0229x elapsed=0:00:20.72    \nframe=   60 fps=2.8 q=34.8 size=       0KiB time=00:00:00.48 bitrate=   0.7kbits/s speed=0.0227x elapsed=0:00:21.24    \nframe=   61 fps=2.8 q=34.7 size=       0KiB time=00:00:00.49 bitrate=   0.7kbits/s speed=0.0226x elapsed=0:00:21.75    \nframe=   62 fps=2.8 q=28.5 size=       0KiB time=00:00:00.50 bitrate=   0.7kbits/s speed=0.0224x elapsed=0:00:22.28    \nframe=   63 fps=2.8 q=34.5 size=       0KiB time=00:00:00.50 bitrate=   0.7kbits/s speed=0.0223x elapsed=0:00:22.81    \nframe=   65 fps=2.8 q=34.1 size=       0KiB time=00:00:00.52 bitrate=   0.7kbits/s speed=0.0225x elapsed=0:00:23.33    \nframe=   65 fps=2.7 q=34.1 size=       0KiB time=00:00:00.52 bitrate=   0.7kbits/s speed=0.022x elapsed=0:00:23.86    \nframe=   66 fps=2.7 q=34.7 size=       0KiB time=00:00:00.53 bitrate=   0.7kbits/s speed=0.0219x elapsed=0:00:24.37    \nframe=   66 fps=2.7 q=34.7 size=       0KiB time=00:00:00.53 bitrate=   0.7kbits/s speed=0.0214x elapsed=0:00:24.89    \nframe=   68 fps=2.7 q=34.6 size=       0KiB time=00:00:00.55 bitrate=   0.6kbits/s speed=0.0216x elapsed=0:00:25.41    \nframe=   69 fps=2.7 q=34.7 size=       0KiB time=00:00:00.55 bitrate=   0.6kbits/s speed=0.0215x elapsed=0:00:25.92    \nframe=   70 fps=2.6 q=34.8 size=       0KiB time=00:00:00.56 bitrate=   0.6kbits/s speed=0.0214x elapsed=0:00:26.44    \nframe=   72 fps=2.7 q=28.1 size=       0KiB time=00:00:00.58 bitrate=   0.6kbits/s speed=0.0216x elapsed=0:00:26.95    \nframe=   74 fps=2.7 q=33.7 size=       0KiB time=00:00:00.60 bitrate=   0.6kbits/s speed=0.0218x elapsed=0:00:27.48    \nframe=   75 fps=2.7 q=33.5 size=       0KiB time=00:00:00.60 bitrate=   0.6kbits/s speed=0.0217x elapsed=0:00:28.01    \nframe=   75 fps=2.6 q=33.5 size=       0KiB time=00:00:00.60 bitrate=   0.6kbits/s speed=0.0213x elapsed=0:00:28.53    \nframe=   76 fps=2.6 q=33.7 size=       0KiB time=00:00:00.61 bitrate=   0.6kbits/s speed=0.0212x elapsed=0:00:29.06    \nframe=   76 fps=2.6 q=33.7 size=       0KiB time=00:00:00.61 bitrate=   0.6kbits/s speed=0.0208x elapsed=0:00:29.57    \nframe=   77 fps=2.6 q=27.5 size=       0KiB time=00:00:00.62 bitrate=   0.6kbits/s speed=0.0208x elapsed=0:00:30.10    \nframe=   79 fps=2.6 q=33.8 size=       0KiB time=00:00:00.64 bitrate=   0.5kbits/s speed=0.0209x elapsed=0:00:30.64    \nframe=   80 fps=2.6 q=33.7 size=       0KiB time=00:00:00.65 bitrate=   0.5kbits/s speed=0.0209x elapsed=0:00:31.16    \nframe=   80 fps=2.5 q=33.7 size=       0KiB time=00:00:00.65 bitrate=   0.5kbits/s speed=0.0205x elapsed=0:00:31.68    \nframe=   81 fps=2.5 q=33.7 size=       0KiB time=00:00:00.65 bitrate=   0.5kbits/s speed=0.0204x elapsed=0:00:32.22    \nframe=   82 fps=2.5 q=27.3 size=       0KiB time=00:00:00.66 bitrate=   0.5kbits/s speed=0.0204x elapsed=0:00:32.74    \nframe=   83 fps=2.5 q=32.7 size=       0KiB time=00:00:00.67 bitrate=   0.5kbits/s speed=0.0203x elapsed=0:00:33.25    \nframe=   84 fps=2.5 q=33.6 size=       0KiB time=00:00:00.68 bitrate=   0.5kbits/s speed=0.0202x elapsed=0:00:33.77    \nframe=   85 fps=2.5 q=33.7 size=       0KiB time=00:00:00.69 bitrate=   0.5kbits/s speed=0.0202x elapsed=0:00:34.29    \nframe=   85 fps=2.4 q=33.7 size=       0KiB time=00:00:00.69 bitrate=   0.5kbits/s speed=0.0199x elapsed=0:00:34.81    \nframe=   87 fps=2.5 q=27.0 size=       0KiB time=00:00:00.70 bitrate=   0.5kbits/s speed=0.02x elapsed=0:00:35.34    \nframe=   89 fps=2.5 q=33.7 size=       0KiB time=00:00:00.72 bitrate=   0.5kbits/s speed=0.0202x elapsed=0:00:35.86    \nframe=   89 fps=2.4 q=33.7 size=       0KiB time=00:00:00.72 bitrate=   0.5kbits/s speed=0.0199x elapsed=0:00:36.38    \nframe=   90 fps=2.4 q=33.7 size=       0KiB time=00:00:00.73 bitrate=   0.5kbits/s speed=0.0199x elapsed=0:00:36.91    \nframe=   92 fps=2.5 q=26.9 size=       0KiB time=00:00:00.75 bitrate=   0.5kbits/s speed=0.02x elapsed=0:00:37.42    \nframe=   93 fps=2.5 q=32.5 size=       0KiB time=00:00:00.75 bitrate=   0.5kbits/s speed=0.02x elapsed=0:00:37.94    \nframe=   94 fps=2.4 q=33.7 size=       0KiB time=00:00:00.76 bitrate=   0.5kbits/s speed=0.0199x elapsed=0:00:38.46    \nframe=   96 fps=2.5 q=33.6 size=       0KiB time=00:00:00.78 bitrate=   0.4kbits/s speed=0.0201x elapsed=0:00:38.99    \nframe=   97 fps=2.5 q=26.7 size=       0KiB time=00:00:00.79 bitrate=   0.4kbits/s speed=0.02x elapsed=0:00:39.51    \nframe=   98 fps=2.4 q=32.6 size=       0KiB time=00:00:00.80 bitrate=   0.4kbits/s speed=0.02x elapsed=0:00:40.01    \nframe=   99 fps=2.4 q=33.7 size=       0KiB time=00:00:00.80 bitrate=   0.4kbits/s speed=0.0199x elapsed=0:00:40.53    \nframe=  101 fps=2.5 q=32.8 size=       0KiB time=00:00:00.82 bitrate=   0.4kbits/s speed=0.0201x elapsed=0:00:41.06    \nframe=  101 fps=2.4 q=32.8 size=       0KiB time=00:00:00.82 bitrate=   0.4kbits/s speed=0.0198x elapsed=0:00:41.58    \nframe=  102 fps=2.4 q=26.6 size=       0KiB time=00:00:00.83 bitrate=   0.4kbits/s speed=0.0198x elapsed=0:00:42.11    \nframe=  103 fps=2.4 q=31.7 size=       0KiB time=00:00:00.84 bitrate=   0.4kbits/s speed=0.0197x elapsed=0:00:42.62    \nframe=  104 fps=2.4 q=33.8 size=       0KiB time=00:00:00.85 bitrate=   0.4kbits/s speed=0.0197x elapsed=0:00:43.14    \nframe=  104 fps=2.4 q=33.8 size=       0KiB time=00:00:00.85 bitrate=   0.4kbits/s speed=0.0195x elapsed=0:00:43.66    \nframe=  106 fps=2.4 q=32.7 size=       0KiB time=00:00:00.86 bitrate=   0.4kbits/s speed=0.0196x elapsed=0:00:44.17    \nframe=  106 fps=2.4 q=32.7 size=       0KiB time=00:00:00.86 bitrate=   0.4kbits/s speed=0.0194x elapsed=0:00:44.70    \nframe=  108 fps=2.4 q=31.7 size=       0KiB time=00:00:00.88 bitrate=   0.4kbits/s speed=0.0195x elapsed=0:00:45.21    \nframe=  109 fps=2.4 q=32.6 size=       0KiB time=00:00:00.89 bitrate=   0.4kbits/s speed=0.0195x elapsed=0:00:45.74    \nframe=  109 fps=2.4 q=32.6 size=       0KiB time=00:00:00.89 bitrate=   0.4kbits/s speed=0.0193x elapsed=0:00:46.26    \nframe=  110 fps=2.4 q=32.5 size=       0KiB time=00:00:00.90 bitrate=   0.4kbits/s speed=0.0192x elapsed=0:00:46.78    \nframe=  112 fps=2.4 q=26.0 size=       0KiB time=00:00:00.91 bitrate=   0.4kbits/s speed=0.0194x elapsed=0:00:47.30    \nframe=  112 fps=2.3 q=26.0 size=       0KiB time=00:00:00.91 bitrate=   0.4kbits/s speed=0.0192x elapsed=0:00:47.81    \nframe=  113 fps=2.3 q=31.7 size=       0KiB time=00:00:00.92 bitrate=   0.4kbits/s speed=0.0191x elapsed=0:00:48.34    \nframe=  113 fps=2.3 q=31.7 size=       0KiB time=00:00:00.92 bitrate=   0.4kbits/s speed=0.0189x elapsed=0:00:48.85    \nframe=  114 fps=2.3 q=32.6 size=       0KiB time=00:00:00.93 bitrate=   0.4kbits/s speed=0.0189x elapsed=0:00:49.36    \nframe=  115 fps=2.3 q=31.8 size=       0KiB time=00:00:00.94 bitrate=   0.4kbits/s speed=0.0189x elapsed=0:00:49.88    \nframe=  116 fps=2.3 q=32.7 size=       0KiB time=00:00:00.95 bitrate=   0.4kbits/s speed=0.0188x elapsed=0:00:50.41    \nframe=  116 fps=2.3 q=32.7 size=       0KiB time=00:00:00.95 bitrate=   0.4kbits/s speed=0.0187x elapsed=0:00:50.92    \nframe=  118 fps=2.3 q=31.8 size=       0KiB time=00:00:00.96 bitrate=   0.4kbits/s speed=0.0188x elapsed=0:00:51.44    \nframe=  119 fps=2.3 q=32.6 size=       0KiB time=00:00:00.97 bitrate=   0.4kbits/s speed=0.0188x elapsed=0:00:51.96    \nframe=  121 fps=2.3 q=31.7 size=       0KiB time=00:00:00.99 bitrate=   0.4kbits/s speed=0.0189x elapsed=0:00:52.47    \nframe=  122 fps=2.3 q=26.1 size=       0KiB time=00:00:01.00 bitrate=   0.4kbits/s speed=0.0189x elapsed=0:00:53.00    \nframe=  124 fps=2.3 q=32.7 size=       0KiB time=00:00:01.01 bitrate=   0.3kbits/s speed=0.019x elapsed=0:00:53.52    \nframe=  124 fps=2.3 q=32.7 size=       0KiB time=00:00:01.01 bitrate=   0.3kbits/s speed=0.0188x elapsed=0:00:54.04    \nframe=  124 fps=2.3 q=32.7 size=       0KiB time=00:00:01.01 bitrate=   0.3kbits/s speed=0.0186x elapsed=0:00:54.55    \nframe=  125 fps=2.3 q=31.8 size=       0KiB time=00:00:01.02 bitrate=   0.3kbits/s speed=0.0186x elapsed=0:00:55.08    \nframe=  126 fps=2.3 q=31.8 size=       0KiB time=00:00:01.03 bitrate=   0.3kbits/s speed=0.0186x elapsed=0:00:55.62    \nframe=  127 fps=2.3 q=25.7 size=       0KiB time=00:00:01.04 bitrate=   0.3kbits/s speed=0.0186x elapsed=0:00:56.15    \nframe=  128 fps=2.3 q=31.7 size=       0KiB time=00:00:01.05 bitrate=   0.3kbits/s speed=0.0185x elapsed=0:00:56.68    \nframe=  129 fps=2.3 q=31.8 size=       0KiB time=00:00:01.05 bitrate=   0.3kbits/s speed=0.0185x elapsed=0:00:57.20    \nframe=  130 fps=2.3 q=31.8 size=       0KiB time=00:00:01.06 bitrate=   0.3kbits/s speed=0.0185x elapsed=0:00:57.73    \nframe=  131 fps=2.2 q=31.9 size=       0KiB time=00:00:01.07 bitrate=   0.3kbits/s speed=0.0185x elapsed=0:00:58.25    \nframe=  132 fps=2.2 q=25.6 size=       0KiB time=00:00:01.08 bitrate=   0.3kbits/s speed=0.0184x elapsed=0:00:58.77    \nframe=  133 fps=2.2 q=30.8 size=       0KiB time=00:00:01.09 bitrate=   0.3kbits/s speed=0.0184x elapsed=0:00:59.31    \nframe=  133 fps=2.2 q=30.8 size=       0KiB time=00:00:01.09 bitrate=   0.3kbits/s speed=0.0182x elapsed=0:00:59.82    \nframe=  134 fps=2.2 q=31.8 size=       0KiB time=00:00:01.10 bitrate=   0.3kbits/s speed=0.0182x elapsed=0:01:00.33    \nframe=  136 fps=2.2 q=31.8 size=       0KiB time=00:00:01.11 bitrate=   0.3kbits/s speed=0.0183x elapsed=0:01:00.85    \nframe=  138 fps=2.2 q=30.8 size=       0KiB time=00:00:01.13 bitrate=   0.3kbits/s speed=0.0185x elapsed=0:01:01.38    \nframe=  139 fps=2.2 q=31.8 size=       0KiB time=00:00:01.14 bitrate=   0.3kbits/s speed=0.0184x elapsed=0:01:01.94    \nframe=  141 fps=2.3 q=31.6 size=       0KiB time=00:00:01.15 bitrate=   0.3kbits/s speed=0.0185x elapsed=0:01:02.47    \nframe=  141 fps=2.2 q=31.6 size=       0KiB time=00:00:01.15 bitrate=   0.3kbits/s speed=0.0184x elapsed=0:01:03.00    \nframe=  142 fps=2.2 q=26.0 size=       0KiB time=00:00:01.16 bitrate=   0.3kbits/s speed=0.0184x elapsed=0:01:03.51    \nframe=  144 fps=2.2 q=31.9 size=       0KiB time=00:00:01.18 bitrate=   0.3kbits/s speed=0.0185x elapsed=0:01:04.03    \nframe=  144 fps=2.2 q=31.9 size=       0KiB time=00:00:01.18 bitrate=   0.3kbits/s speed=0.0183x elapsed=0:01:04.56    \nframe=  146 fps=2.2 q=31.0 size=       0KiB time=00:00:01.20 bitrate=   0.3kbits/s speed=0.0184x elapsed=0:01:05.08    \nframe=  147 fps=2.2 q=26.1 size=       0KiB time=00:00:01.20 bitrate=   0.3kbits/s speed=0.0184x elapsed=0:01:05.60    \nframe=  148 fps=2.2 q=30.7 size=       0KiB time=00:00:01.21 bitrate=   0.3kbits/s speed=0.0184x elapsed=0:01:06.12    \nframe=  149 fps=2.2 q=31.9 size=       0KiB time=00:00:01.22 bitrate=   0.3kbits/s speed=0.0184x elapsed=0:01:06.64    \nframe=  149 fps=2.2 q=31.9 size=       0KiB time=00:00:01.22 bitrate=   0.3kbits/s speed=0.0182x elapsed=0:01:07.15    \nframe=  149 fps=2.2 q=31.9 size=       0KiB time=00:00:01.22 bitrate=   0.3kbits/s speed=0.0181x elapsed=0:01:07.68    \nframe=  150 fps=2.2 q=30.9 size=       0KiB time=00:00:01.23 bitrate=   0.3kbits/s speed=0.0181x elapsed=0:01:08.23    \nframe=  150 fps=2.2 q=30.9 size=       0KiB time=00:00:01.23 bitrate=   0.3kbits/s speed=0.0179x elapsed=0:01:08.78    \nframe=  150 fps=2.2 q=30.9 size=       0KiB time=00:00:01.23 bitrate=   0.3kbits/s speed=0.0178x elapsed=0:01:09.31    \nframe=  152 fps=2.2 q=25.8 size=       0KiB time=00:00:01.24 bitrate=   0.3kbits/s speed=0.0178x elapsed=0:01:09.83    \nframe=  152 fps=2.2 q=25.8 size=       0KiB time=00:00:01.25 bitrate=   0.3kbits/s speed=0.0178x elapsed=0:01:10.38    \nframe=  152 fps=2.1 q=25.8 size=       0KiB time=00:00:01.25 bitrate=   0.3kbits/s speed=0.0176x elapsed=0:01:10.92    \nframe=  153 fps=2.1 q=30.8 size=       0KiB time=00:00:01.25 bitrate=   0.3kbits/s speed=0.0176x elapsed=0:01:11.45    \nframe=  154 fps=2.1 q=32.0 size=       0KiB time=00:00:01.26 bitrate=   0.3kbits/s speed=0.0176x elapsed=0:01:11.98    \nframe=  154 fps=2.1 q=32.0 size=       0KiB time=00:00:01.26 bitrate=   0.3kbits/s speed=0.0175x elapsed=0:01:12.52    \nframe=  155 fps=2.1 q=30.8 size=       0KiB time=00:00:01.27 bitrate=   0.3kbits/s speed=0.0174x elapsed=0:01:13.07    \nframe=  156 fps=2.1 q=30.8 size=       0KiB time=00:00:01.28 bitrate=   0.3kbits/s speed=0.0174x elapsed=0:01:13.60    \nframe=  156 fps=2.1 q=30.8 size=       0KiB time=00:00:01.28 bitrate=   0.3kbits/s speed=0.0173x elapsed=0:01:14.15    \nframe=  157 fps=2.1 q=25.3 size=       0KiB time=00:00:01.29 bitrate=   0.3kbits/s speed=0.0173x elapsed=0:01:14.70    \nframe=  157 fps=2.1 q=25.3 size=       0KiB time=00:00:01.29 bitrate=   0.3kbits/s speed=0.0172x elapsed=0:01:15.23    \nframe=  158 fps=2.1 q=30.6 size=       0KiB time=00:00:01.30 bitrate=   0.3kbits/s speed=0.0172x elapsed=0:01:15.76    \nframe=  158 fps=2.1 q=30.6 size=       0KiB time=00:00:01.30 bitrate=   0.3kbits/s speed=0.017x elapsed=0:01:16.28    \nframe=  159 fps=2.1 q=31.0 size=       0KiB time=00:00:01.30 bitrate=   0.3kbits/s speed=0.017x elapsed=0:01:16.83    \nframe=  159 fps=2.1 q=31.0 size=       0KiB time=00:00:01.30 bitrate=   0.3kbits/s speed=0.0169x elapsed=0:01:17.36    \nframe=  160 fps=2.1 q=30.7 size=       0KiB time=00:00:01.31 bitrate=   0.3kbits/s speed=0.0169x elapsed=0:01:17.89    \nframe=  160 fps=2.0 q=30.7 size=       0KiB time=00:00:01.31 bitrate=   0.3kbits/s speed=0.0168x elapsed=0:01:18.41    \nframe=  161 fps=2.0 q=30.6 size=       0KiB time=00:00:01.32 bitrate=   0.3kbits/s speed=0.0168x elapsed=0:01:18.95    \nframe=  162 fps=2.0 q=24.9 size=       0KiB time=00:00:01.33 bitrate=   0.3kbits/s speed=0.0168x elapsed=0:01:19.46    \nframe=  162 fps=2.0 q=24.9 size=       0KiB time=00:00:01.33 bitrate=   0.3kbits/s speed=0.0167x elapsed=0:01:19.99    \nframe=  164 fps=2.0 q=30.9 size=     256KiB time=00:00:01.35 bitrate=1553.7kbits/s speed=0.0168x elapsed=0:01:20.52    \nframe=  164 fps=2.0 q=30.9 size=     256KiB time=00:00:01.35 bitrate=1553.7kbits/s speed=0.0167x elapsed=0:01:21.07    \nframe=  165 fps=2.0 q=29.8 size=     256KiB time=00:00:01.35 bitrate=1544.2kbits/s speed=0.0166x elapsed=0:01:21.59    \nframe=  167 fps=2.0 q=24.7 size=     256KiB time=00:00:01.37 bitrate=1525.5kbits/s speed=0.0167x elapsed=0:01:22.12    \nframe=  169 fps=2.0 q=30.8 size=     256KiB time=00:00:01.39 bitrate=1507.2kbits/s speed=0.0168x elapsed=0:01:22.64    \nframe=  169 fps=2.0 q=30.8 size=     256KiB time=00:00:01.39 bitrate=1507.2kbits/s speed=0.0167x elapsed=0:01:23.16    \nframe=  170 fps=2.0 q=29.8 size=     256KiB time=00:00:01.40 bitrate=1498.2kbits/s speed=0.0167x elapsed=0:01:23.70    \nframe=  172 fps=2.0 q=24.6 size=     256KiB time=00:00:01.41 bitrate=1480.6kbits/s speed=0.0168x elapsed=0:01:24.23    \nframe=  173 fps=2.0 q=29.8 size=     256KiB time=00:00:01.42 bitrate=1471.9kbits/s speed=0.0168x elapsed=0:01:24.74    \nframe=  174 fps=2.0 q=30.9 size=     256KiB time=00:00:01.43 bitrate=1463.4kbits/s speed=0.0168x elapsed=0:01:25.26    \nframe=  175 fps=2.0 q=29.8 size=     256KiB time=00:00:01.44 bitrate=1454.9kbits/s speed=0.0168x elapsed=0:01:25.78    \nframe=  176 fps=2.0 q=29.9 size=     256KiB time=00:00:01.45 bitrate=1446.6kbits/s speed=0.0168x elapsed=0:01:26.31    \nframe=  177 fps=2.0 q=24.7 size=     256KiB time=00:00:01.45 bitrate=1438.3kbits/s speed=0.0168x elapsed=0:01:26.83    \nframe=  177 fps=2.0 q=24.7 size=     256KiB time=00:00:01.45 bitrate=1438.3kbits/s speed=0.0167x elapsed=0:01:27.36    \nframe=  178 fps=2.0 q=29.7 size=     256KiB time=00:00:01.46 bitrate=1430.1kbits/s speed=0.0167x elapsed=0:01:27.88    \nframe=  178 fps=2.0 q=29.7 size=     256KiB time=00:00:01.46 bitrate=1430.1kbits/s speed=0.0166x elapsed=0:01:28.41    \nframe=  178 fps=2.0 q=29.7 size=     256KiB time=00:00:01.46 bitrate=1430.1kbits/s speed=0.0165x elapsed=0:01:28.96    \nframe=  179 fps=2.0 q=30.5 size=     256KiB time=00:00:01.47 bitrate=1422.0kbits/s speed=0.0165x elapsed=0:01:29.49    \nframe=  179 fps=2.0 q=30.5 size=     256KiB time=00:00:01.47 bitrate=1422.0kbits/s speed=0.0164x elapsed=0:01:30.03    \nframe=  180 fps=2.0 q=29.6 size=     256KiB time=00:00:01.48 bitrate=1414.0kbits/s speed=0.0164x elapsed=0:01:30.57    \nframe=  180 fps=2.0 q=29.6 size=     256KiB time=00:00:01.48 bitrate=1414.0kbits/s speed=0.0163x elapsed=0:01:31.11    \nframe=  180 fps=2.0 q=29.6 size=     256KiB time=00:00:01.48 bitrate=1414.0kbits/s speed=0.0162x elapsed=0:01:31.65    \nframe=  180 fps=2.0 q=29.6 size=     256KiB time=00:00:01.48 bitrate=1414.0kbits/s speed=0.0161x elapsed=0:01:32.20    \nframe=  180 fps=1.9 q=29.6 size=     256KiB time=00:00:01.48 bitrate=1414.0kbits/s speed=0.016x elapsed=0:01:32.73    \nframe=  181 fps=1.9 q=29.9 size=     256KiB time=00:00:01.49 bitrate=1406.1kbits/s speed=0.016x elapsed=0:01:33.28    \nframe=  182 fps=1.9 q=24.4 size=     256KiB time=00:00:01.50 bitrate=1398.3kbits/s speed=0.016x elapsed=0:01:33.83    \nframe=  182 fps=1.9 q=24.4 size=     256KiB time=00:00:01.50 bitrate=1398.3kbits/s speed=0.0159x elapsed=0:01:34.39    \nframe=  182 fps=1.9 q=24.4 size=     256KiB time=00:00:01.50 bitrate=1398.3kbits/s speed=0.0158x elapsed=0:01:34.94    \nframe=  183 fps=1.9 q=29.7 size=     256KiB time=00:00:01.50 bitrate=1390.6kbits/s speed=0.0158x elapsed=0:01:35.47    \nframe=  183 fps=1.9 q=29.7 size=     256KiB time=00:00:01.50 bitrate=1390.6kbits/s speed=0.0157x elapsed=0:01:36.03    \nframe=  184 fps=1.9 q=29.9 size=     256KiB time=00:00:01.51 bitrate=1383.0kbits/s speed=0.0157x elapsed=0:01:36.56    \nframe=  184 fps=1.9 q=29.9 size=     256KiB time=00:00:01.51 bitrate=1383.0kbits/s speed=0.0156x elapsed=0:01:37.09    \nframe=  184 fps=1.9 q=29.9 size=     256KiB time=00:00:01.51 bitrate=1383.0kbits/s speed=0.0155x elapsed=0:01:37.63    \nframe=  184 fps=1.9 q=29.9 size=     256KiB time=00:00:01.51 bitrate=1383.0kbits/s speed=0.0154x elapsed=0:01:38.19    \nframe=  184 fps=1.9 q=29.9 size=     256KiB time=00:00:01.51 bitrate=1383.0kbits/s speed=0.0154x elapsed=0:01:38.75    \nframe=  184 fps=1.9 q=29.9 size=     256KiB time=00:00:01.51 bitrate=1383.0kbits/s speed=0.0153x elapsed=0:01:39.25    \nframe=  184 fps=1.8 q=29.9 size=     256KiB time=00:00:01.51 bitrate=1383.0kbits/s speed=0.0152x elapsed=0:01:39.82    \nframe=  184 fps=1.8 q=29.9 size=     256KiB time=00:00:01.51 bitrate=1383.0kbits/s speed=0.0151x elapsed=0:01:40.37    \nframe=  185 fps=1.8 q=29.3 size=     256KiB time=00:00:01.52 bitrate=1375.4kbits/s speed=0.0151x elapsed=0:01:40.89    \nframe=  185 fps=1.8 q=29.3 size=     256KiB time=00:00:01.52 bitrate=1375.4kbits/s speed=0.015x elapsed=0:01:41.41    \nframe=  186 fps=1.8 q=29.2 size=     256KiB time=00:00:01.53 bitrate=1367.9kbits/s speed=0.015x elapsed=0:01:41.97    \nframe=  186 fps=1.8 q=29.2 size=     256KiB time=00:00:01.53 bitrate=1367.9kbits/s speed=0.015x elapsed=0:01:42.52    \nframe=  187 fps=1.8 q=24.3 size=     256KiB time=00:00:01.54 bitrate=1360.5kbits/s speed=0.015x elapsed=0:01:43.05    \nframe=  189 fps=1.8 q=29.8 size=     256KiB time=00:00:01.55 bitrate=1346.0kbits/s speed=0.015x elapsed=0:01:43.57    \nframe=  189 fps=1.8 q=29.8 size=     256KiB time=00:00:01.55 bitrate=1346.0kbits/s speed=0.015x elapsed=0:01:44.11    \nframe=  190 fps=1.8 q=29.5 size=     256KiB time=00:00:01.56 bitrate=1338.8kbits/s speed=0.015x elapsed=0:01:44.63    \nframe=  191 fps=1.8 q=29.4 size=     256KiB time=00:00:01.57 bitrate=1331.7kbits/s speed=0.015x elapsed=0:01:45.17    \nframe=  193 fps=1.8 q=29.6 size=     256KiB time=00:00:01.59 bitrate=1317.8kbits/s speed=0.0151x elapsed=0:01:45.71    \nframe=  194 fps=1.8 q=29.6 size=     256KiB time=00:00:01.60 bitrate=1310.9kbits/s speed=0.0151x elapsed=0:01:46.23    \nframe=  195 fps=1.8 q=29.2 size=     256KiB time=00:00:01.60 bitrate=1304.1kbits/s speed=0.0151x elapsed=0:01:46.75    \nframe=  196 fps=1.8 q=29.8 size=     256KiB time=00:00:01.61 bitrate=1297.4kbits/s speed=0.0151x elapsed=0:01:47.28    \nframe=  196 fps=1.8 q=29.8 size=     256KiB time=00:00:01.61 bitrate=1297.4kbits/s speed=0.015x elapsed=0:01:47.81    \nframe=  198 fps=1.8 q=29.5 size=     256KiB time=00:00:01.63 bitrate=1284.2kbits/s speed=0.0151x elapsed=0:01:48.35    \nframe=  199 fps=1.8 q=29.7 size=     256KiB time=00:00:01.64 bitrate=1277.7kbits/s speed=0.0151x elapsed=0:01:48.88    \nframe=  200 fps=1.8 q=28.6 size=     256KiB time=00:00:01.65 bitrate=1271.2kbits/s speed=0.0151x elapsed=0:01:49.40    \nframe=  201 fps=1.8 q=29.6 size=     256KiB time=00:00:01.65 bitrate=1264.8kbits/s speed=0.0151x elapsed=0:01:49.92    \nframe=  202 fps=1.8 q=24.1 size=     256KiB time=00:00:01.66 bitrate=1258.5kbits/s speed=0.0151x elapsed=0:01:50.45    \nframe=  203 fps=1.8 q=29.7 size=     256KiB time=00:00:01.67 bitrate=1252.2kbits/s speed=0.0151x elapsed=0:01:50.98    \nframe=  203 fps=1.8 q=29.7 size=     256KiB time=00:00:01.67 bitrate=1252.2kbits/s speed=0.015x elapsed=0:01:51.52    \nframe=  204 fps=1.8 q=29.7 size=     256KiB time=00:00:01.68 bitrate=1246.0kbits/s speed=0.015x elapsed=0:01:52.08    \nframe=  204 fps=1.8 q=29.7 size=     256KiB time=00:00:01.68 bitrate=1246.0kbits/s speed=0.0149x elapsed=0:01:52.61    \nframe=  204 fps=1.8 q=29.7 size=     256KiB time=00:00:01.68 bitrate=1246.0kbits/s speed=0.0149x elapsed=0:01:53.14    \nframe=  206 fps=1.8 q=29.8 size=     256KiB time=00:00:01.70 bitrate=1233.8kbits/s speed=0.015x elapsed=0:01:53.68    \nframe=  208 fps=1.8 q=29.7 size=     256KiB time=00:00:01.71 bitrate=1221.8kbits/s speed=0.015x elapsed=0:01:54.20    \nframe=  209 fps=1.8 q=29.9 size=     256KiB time=00:00:01.72 bitrate=1215.9kbits/s speed=0.015x elapsed=0:01:54.72    \nframe=  209 fps=1.8 q=29.9 size=     256KiB time=00:00:01.72 bitrate=1215.9kbits/s speed=0.015x elapsed=0:01:55.27    \nframe=  210 fps=1.8 q=28.7 size=     256KiB time=00:00:01.73 bitrate=1210.1kbits/s speed=0.015x elapsed=0:01:55.78    \nframe=  211 fps=1.8 q=29.6 size=     256KiB time=00:00:01.74 bitrate=1204.3kbits/s speed=0.015x elapsed=0:01:56.31    \nframe=  212 fps=1.8 q=24.1 size=     256KiB time=00:00:01.75 bitrate=1198.6kbits/s speed=0.015x elapsed=0:01:56.87    \nframe=  212 fps=1.8 q=24.1 size=     256KiB time=00:00:01.75 bitrate=1198.6kbits/s speed=0.0149x elapsed=0:01:57.37    \nframe=  212 fps=1.8 q=24.1 size=     256KiB time=00:00:01.75 bitrate=1198.6kbits/s speed=0.0148x elapsed=0:01:57.89    \nframe=  214 fps=1.8 q=30.0 size=     256KiB time=00:00:01.76 bitrate=1187.3kbits/s speed=0.0149x elapsed=0:01:58.42    \nframe=  216 fps=1.8 q=29.9 size=     256KiB time=00:00:01.78 bitrate=1176.2kbits/s speed=0.015x elapsed=0:01:58.94    \nframe=  218 fps=1.8 q=29.9 size=     256KiB time=00:00:01.80 bitrate=1165.3kbits/s speed=0.0151x elapsed=0:01:59.49    \nframe=  219 fps=1.8 q=30.0 size=     256KiB time=00:00:01.80 bitrate=1159.9kbits/s speed=0.0151x elapsed=0:02:00.01    \nframe=  219 fps=1.8 q=30.0 size=     256KiB time=00:00:01.80 bitrate=1159.9kbits/s speed=0.015x elapsed=0:02:00.53    \nframe=  220 fps=1.8 q=28.9 size=     256KiB time=00:00:01.81 bitrate=1154.6kbits/s speed=0.015x elapsed=0:02:01.07    \nframe=  221 fps=1.8 q=29.9 size=     256KiB time=00:00:01.82 bitrate=1149.3kbits/s speed=0.015x elapsed=0:02:01.60    \nframe=  222 fps=1.8 q=23.9 size=     256KiB time=00:00:01.83 bitrate=1144.1kbits/s speed=0.015x elapsed=0:02:02.13    \nframe=  223 fps=1.8 q=29.3 size=     256KiB time=00:00:01.84 bitrate=1138.9kbits/s speed=0.015x elapsed=0:02:02.66    \nframe=  225 fps=1.8 q=28.5 size=     256KiB time=00:00:01.85 bitrate=1128.7kbits/s speed=0.0151x elapsed=0:02:03.21    \nframe=  226 fps=1.8 q=29.9 size=     256KiB time=00:00:01.86 bitrate=1123.7kbits/s speed=0.0151x elapsed=0:02:03.77    \nframe=  227 fps=1.8 q=26.0 size=     256KiB time=00:00:01.87 bitrate=1118.7kbits/s speed=0.0151x elapsed=0:02:04.29    \nframe=  227 fps=1.8 q=26.0 size=     256KiB time=00:00:01.87 bitrate=1118.7kbits/s speed=0.015x elapsed=0:02:04.84    \nframe=  229 fps=1.8 q=33.9 size=     256KiB time=00:00:01.89 bitrate=1108.8kbits/s speed=0.0151x elapsed=0:02:05.37    \nframe=  232 fps=1.8 q=28.9 size=     256KiB time=00:00:01.91 bitrate=1094.3kbits/s speed=0.0152x elapsed=0:02:05.92    \nframe=  232 fps=1.8 q=28.9 size=     256KiB time=00:00:01.91 bitrate=1094.3kbits/s speed=0.0152x elapsed=0:02:06.45    \nframe=  234 fps=1.8 q=35.0 size=     256KiB time=00:00:01.93 bitrate=1084.9kbits/s speed=0.0152x elapsed=0:02:06.97    \nframe=  234 fps=1.8 q=35.0 size=     256KiB time=00:00:01.93 bitrate=1084.9kbits/s speed=0.0152x elapsed=0:02:07.51    \nframe=  236 fps=1.8 q=35.0 size=     256KiB time=00:00:01.95 bitrate=1075.6kbits/s speed=0.0152x elapsed=0:02:08.07    \nframe=  237 fps=1.8 q=29.9 size=     256KiB time=00:00:01.95 bitrate=1071.1kbits/s speed=0.0152x elapsed=0:02:08.58    \nframe=  237 fps=1.8 q=29.9 size=     256KiB time=00:00:01.95 bitrate=1071.1kbits/s speed=0.0152x elapsed=0:02:09.12    \nframe=  240 fps=1.9 q=35.7 size=     256KiB time=00:00:01.98 bitrate=1057.6kbits/s speed=0.0153x elapsed=0:02:09.64    \nframe=  240 fps=1.8 q=35.7 size=     256KiB time=00:00:01.98 bitrate=1057.6kbits/s speed=0.0152x elapsed=0:02:10.17    \nframe=  242 fps=1.9 q=30.2 size=     256KiB time=00:00:02.00 bitrate=1048.8kbits/s speed=0.0153x elapsed=0:02:10.71    \nframe=  244 fps=1.9 q=35.9 size=     256KiB time=00:00:02.01 bitrate=1040.1kbits/s speed=0.0154x elapsed=0:02:11.23    \nframe=  244 fps=1.9 q=35.9 size=     256KiB time=00:00:02.01 bitrate=1040.1kbits/s speed=0.0153x elapsed=0:02:11.76    \nframe=  244 fps=1.8 q=35.9 size=     256KiB time=00:00:02.01 bitrate=1040.1kbits/s speed=0.0152x elapsed=0:02:12.29    \nframe=  244 fps=1.8 q=35.9 size=     256KiB time=00:00:02.01 bitrate=1040.1kbits/s speed=0.0152x elapsed=0:02:12.86    \nframe=  245 fps=1.8 q=35.9 size=     256KiB time=00:00:02.02 bitrate=1035.8kbits/s speed=0.0152x elapsed=0:02:13.38    \nframe=  245 fps=1.8 q=35.9 size=     256KiB time=00:00:02.02 bitrate=1035.8kbits/s speed=0.0151x elapsed=0:02:13.91    \nframe=  246 fps=1.8 q=35.9 size=     256KiB time=00:00:02.03 bitrate=1031.6kbits/s speed=0.0151x elapsed=0:02:14.45    \nframe=  248 fps=1.8 q=34.9 size=     256KiB time=00:00:02.05 bitrate=1023.2kbits/s speed=0.0152x elapsed=0:02:14.99    \nframe=  250 fps=1.8 q=35.8 size=     256KiB time=00:00:02.06 bitrate=1014.9kbits/s speed=0.0152x elapsed=0:02:15.52    \nframe=  251 fps=1.8 q=36.8 size=     256KiB time=00:00:02.07 bitrate=1010.8kbits/s speed=0.0153x elapsed=0:02:16.05    \nframe=  252 fps=1.8 q=25.5 size=     256KiB time=00:00:02.08 bitrate=1006.8kbits/s speed=0.0153x elapsed=0:02:16.56    \nframe=  253 fps=1.8 q=32.8 size=     256KiB time=00:00:02.09 bitrate=1002.8kbits/s speed=0.0153x elapsed=0:02:17.09    \nframe=  255 fps=1.9 q=33.8 size=     256KiB time=00:00:02.10 bitrate= 994.9kbits/s speed=0.0153x elapsed=0:02:17.60    \nframe=  257 fps=1.9 q=25.6 size=     256KiB time=00:00:02.12 bitrate= 987.1kbits/s speed=0.0154x elapsed=0:02:18.11    \nframe=  258 fps=1.9 q=32.9 size=     256KiB time=00:00:02.13 bitrate= 983.2kbits/s speed=0.0154x elapsed=0:02:18.66    \nframe=  260 fps=1.9 q=33.8 size=     256KiB time=00:00:02.15 bitrate= 975.6kbits/s speed=0.0154x elapsed=0:02:19.19    \nframe=  260 fps=1.9 q=33.8 size=     256KiB time=00:00:02.15 bitrate= 975.6kbits/s speed=0.0154x elapsed=0:02:19.72    \nframe=  260 fps=1.9 q=33.8 size=     256KiB time=00:00:02.15 bitrate= 975.6kbits/s speed=0.0153x elapsed=0:02:20.25    \nframe=  260 fps=1.8 q=33.8 size=     256KiB time=00:00:02.15 bitrate= 975.6kbits/s speed=0.0153x elapsed=0:02:20.78    \nframe=  261 fps=1.8 q=33.8 size=     256KiB time=00:00:02.15 bitrate= 971.8kbits/s speed=0.0153x elapsed=0:02:21.32    \nframe=  263 fps=1.9 q=32.8 size=     512KiB time=00:00:02.17 bitrate=1928.6kbits/s speed=0.0153x elapsed=0:02:21.84    \nframe=  265 fps=1.9 q=33.8 size=     512KiB time=00:00:02.19 bitrate=1913.9kbits/s speed=0.0154x elapsed=0:02:22.38    \nframe=  266 fps=1.9 q=33.9 size=     512KiB time=00:00:02.20 bitrate=1906.7kbits/s speed=0.0154x elapsed=0:02:22.91    \nframe=  267 fps=1.9 q=25.6 size=     512KiB time=00:00:02.20 bitrate=1899.5kbits/s speed=0.0154x elapsed=0:02:23.45    \nframe=  268 fps=1.9 q=32.8 size=     512KiB time=00:00:02.21 bitrate=1892.3kbits/s speed=0.0154x elapsed=0:02:23.98    \nframe=  269 fps=1.9 q=33.9 size=     512KiB time=00:00:02.22 bitrate=1885.2kbits/s speed=0.0154x elapsed=0:02:24.49    \nframe=  270 fps=1.9 q=33.9 size=     512KiB time=00:00:02.23 bitrate=1878.2kbits/s speed=0.0154x elapsed=0:02:25.02    \nframe=  271 fps=1.9 q=33.9 size=     512KiB time=00:00:02.24 bitrate=1871.2kbits/s speed=0.0154x elapsed=0:02:25.56    \nframe=  272 fps=1.9 q=25.9 size=     512KiB time=00:00:02.25 bitrate=1864.3kbits/s speed=0.0154x elapsed=0:02:26.09    \nframe=  272 fps=1.9 q=25.9 size=     512KiB time=00:00:02.25 bitrate=1864.3kbits/s speed=0.0153x elapsed=0:02:26.64    \nframe=  272 fps=1.8 q=25.9 size=     512KiB time=00:00:02.25 bitrate=1864.3kbits/s speed=0.0153x elapsed=0:02:27.18    \nframe=  273 fps=1.8 q=32.7 size=     512KiB time=00:00:02.25 bitrate=1857.4kbits/s speed=0.0153x elapsed=0:02:27.72    \nframe=  275 fps=1.9 q=33.9 size=     512KiB time=00:00:02.27 bitrate=1843.8kbits/s speed=0.0153x elapsed=0:02:28.24    \nframe=  275 fps=1.8 q=33.9 size=     512KiB time=00:00:02.27 bitrate=1843.8kbits/s speed=0.0153x elapsed=0:02:28.78    \nframe=  276 fps=1.8 q=33.7 size=     512KiB time=00:00:02.28 bitrate=1837.1kbits/s speed=0.0153x elapsed=0:02:29.33    \nframe=  276 fps=1.8 q=33.7 size=     512KiB time=00:00:02.28 bitrate=1837.1kbits/s speed=0.0152x elapsed=0:02:29.84    \nframe=  277 fps=1.8 q=25.6 size=     512KiB time=00:00:02.29 bitrate=1830.4kbits/s speed=0.0152x elapsed=0:02:30.37    \nframe=  278 fps=1.8 q=32.7 size=     512KiB time=00:00:02.30 bitrate=1823.8kbits/s speed=0.0152x elapsed=0:02:30.89    \nframe=  281 fps=1.9 q=33.7 size=     512KiB time=00:00:02.32 bitrate=1804.2kbits/s speed=0.0154x elapsed=0:02:31.41    \nframe=  283 fps=1.9 q=32.7 size=     512KiB time=00:00:02.34 bitrate=1791.3kbits/s speed=0.0154x elapsed=0:02:31.95    \nframe=  285 fps=1.9 q=33.7 size=     512KiB time=00:00:02.35 bitrate=1778.7kbits/s speed=0.0155x elapsed=0:02:32.47    \nframe=  286 fps=1.9 q=33.7 size=     512KiB time=00:00:02.36 bitrate=1772.4kbits/s speed=0.0155x elapsed=0:02:33.02    \nframe=  288 fps=1.9 q=32.8 size=     512KiB time=00:00:02.38 bitrate=1760.0kbits/s speed=0.0155x elapsed=0:02:33.55    \nframe=  291 fps=1.9 q=33.8 size=     512KiB time=00:00:02.40 bitrate=1741.7kbits/s speed=0.0156x elapsed=0:02:34.08    \nframe=  293 fps=1.9 q=32.8 size=     512KiB time=00:00:02.42 bitrate=1729.8kbits/s speed=0.0157x elapsed=0:02:34.60    \nframe=  294 fps=1.9 q=33.8 size=     512KiB time=00:00:02.43 bitrate=1723.8kbits/s speed=0.0157x elapsed=0:02:35.15    \nframe=  296 fps=1.9 q=33.8 size=     512KiB time=00:00:02.45 bitrate=1712.1kbits/s speed=0.0157x elapsed=0:02:35.67    \nframe=  297 fps=1.9 q=25.6 size=     512KiB time=00:00:02.45 bitrate=1706.3kbits/s speed=0.0157x elapsed=0:02:36.23    \nframe=  299 fps=1.9 q=33.8 size=     512KiB time=00:00:02.47 bitrate=1694.8kbits/s speed=0.0158x elapsed=0:02:36.77    \nframe=  300 fps=1.9 q=33.8 size=     512KiB time=00:00:02.48 bitrate=1689.1kbits/s speed=0.0158x elapsed=0:02:37.28    \nframe=  300 fps=1.9 q=33.8 size=     512KiB time=00:00:02.48 bitrate=1689.1kbits/s speed=0.0157x elapsed=0:02:37.82    \nframe=  303 fps=1.9 q=32.8 size=     512KiB time=00:00:02.50 bitrate=1672.3kbits/s speed=0.0158x elapsed=0:02:38.35    \nframe=  305 fps=1.9 q=33.8 size=     512KiB time=00:00:02.52 bitrate=1661.2kbits/s speed=0.0159x elapsed=0:02:38.88    \nframe=  306 fps=1.9 q=33.8 size=     512KiB time=00:00:02.53 bitrate=1655.8kbits/s speed=0.0159x elapsed=0:02:39.44    \nframe=  308 fps=1.9 q=32.8 size=     512KiB time=00:00:02.55 bitrate=1645.0kbits/s speed=0.0159x elapsed=0:02:40.01    \nframe=  309 fps=1.9 q=31.8 size=     512KiB time=00:00:02.55 bitrate=1639.6kbits/s speed=0.0159x elapsed=0:02:40.53    \nframe=  309 fps=1.9 q=31.8 size=     512KiB time=00:00:02.55 bitrate=1639.6kbits/s speed=0.0159x elapsed=0:02:41.04    \nframe=  309 fps=1.9 q=31.8 size=     512KiB time=00:00:02.55 bitrate=1639.6kbits/s speed=0.0158x elapsed=0:02:41.58    \nframe=  311 fps=1.9 q=31.8 size=     512KiB time=00:00:02.57 bitrate=1629.0kbits/s speed=0.0159x elapsed=0:02:42.11    \nframe=  312 fps=1.9 q=23.1 size=     512KiB time=00:00:02.57 bitrate=1629.0kbits/s speed=0.0158x elapsed=0:02:42.64    \nframe=  313 fps=1.9 q=28.6 size=     512KiB time=00:00:02.59 bitrate=1618.5kbits/s speed=0.0159x elapsed=0:02:43.18    \nframe=  314 fps=1.9 q=30.6 size=     512KiB time=00:00:02.60 bitrate=1613.3kbits/s speed=0.0159x elapsed=0:02:43.69    \nframe=  314 fps=1.9 q=30.6 size=     512KiB time=00:00:02.60 bitrate=1613.3kbits/s speed=0.0158x elapsed=0:02:44.21    \nframe=  316 fps=1.9 q=28.3 size=     512KiB time=00:00:02.61 bitrate=1603.1kbits/s speed=0.0159x elapsed=0:02:44.73    \nframe=  317 fps=1.9 q=23.4 size=     512KiB time=00:00:02.62 bitrate=1598.0kbits/s speed=0.0159x elapsed=0:02:45.26    \nframe=  319 fps=1.9 q=29.8 size=     512KiB time=00:00:02.64 bitrate=1587.9kbits/s speed=0.0159x elapsed=0:02:45.79    \nframe=  319 fps=1.9 q=29.8 size=     512KiB time=00:00:02.64 bitrate=1587.9kbits/s speed=0.0159x elapsed=0:02:46.32    \nframe=  320 fps=1.9 q=29.6 size=     512KiB time=00:00:02.65 bitrate=1582.9kbits/s speed=0.0159x elapsed=0:02:46.83    \nframe=  321 fps=1.9 q=29.6 size=     512KiB time=00:00:02.65 bitrate=1577.9kbits/s speed=0.0159x elapsed=0:02:47.35    \nframe=  323 fps=1.9 q=29.8 size=     512KiB time=00:00:02.67 bitrate=1568.1kbits/s speed=0.0159x elapsed=0:02:47.88    \nframe=  325 fps=1.9 q=29.6 size=     512KiB time=00:00:02.69 bitrate=1558.4kbits/s speed=0.016x elapsed=0:02:48.44    \nframe=  325 fps=1.9 q=29.6 size=     512KiB time=00:00:02.69 bitrate=1558.4kbits/s speed=0.0159x elapsed=0:02:48.96    \nframe=  327 fps=1.9 q=23.6 size=     512KiB time=00:00:02.70 bitrate=1548.8kbits/s speed=0.016x elapsed=0:02:49.48    \nframe=  329 fps=1.9 q=29.8 size=     512KiB time=00:00:02.72 bitrate=1539.3kbits/s speed=0.016x elapsed=0:02:50.04    \nframe=  330 fps=1.9 q=29.7 size=     512KiB time=00:00:02.73 bitrate=1534.6kbits/s speed=0.016x elapsed=0:02:50.58    \nframe=  332 fps=1.9 q=23.6 size=     512KiB time=00:00:02.75 bitrate=1525.3kbits/s speed=0.0161x elapsed=0:02:51.11    \nframe=  333 fps=1.9 q=29.6 size=     512KiB time=00:00:02.75 bitrate=1520.7kbits/s speed=0.0161x elapsed=0:02:51.63    \nframe=  335 fps=1.9 q=28.6 size=     512KiB time=00:00:02.77 bitrate=1511.6kbits/s speed=0.0161x elapsed=0:02:52.16    \nframe=  335 fps=1.9 q=28.6 size=     512KiB time=00:00:02.77 bitrate=1511.6kbits/s speed=0.0161x elapsed=0:02:52.67    \nframe=  335 fps=1.9 q=28.6 size=     512KiB time=00:00:02.77 bitrate=1511.6kbits/s speed=0.016x elapsed=0:02:53.21    \nframe=  338 fps=1.9 q=28.8 size=     512KiB time=00:00:02.80 bitrate=1498.1kbits/s speed=0.0161x elapsed=0:02:53.74    \nframe=  339 fps=1.9 q=29.6 size=     512KiB time=00:00:02.80 bitrate=1493.6kbits/s speed=0.0161x elapsed=0:02:54.32    \nframe=  340 fps=1.9 q=28.7 size=     512KiB time=00:00:02.81 bitrate=1489.2kbits/s speed=0.0161x elapsed=0:02:54.85    \nframe=  341 fps=1.9 q=29.5 size=     512KiB time=00:00:02.82 bitrate=1484.8kbits/s speed=0.0161x elapsed=0:02:55.39    \nframe=  343 fps=1.9 q=28.6 size=     512KiB time=00:00:02.84 bitrate=1476.1kbits/s speed=0.0162x elapsed=0:02:55.90    \nframe=  344 fps=1.9 q=29.6 size=     512KiB time=00:00:02.85 bitrate=1471.8kbits/s speed=0.0162x elapsed=0:02:56.42    \nframe=  345 fps=1.9 q=28.5 size=     512KiB time=00:00:02.85 bitrate=1467.5kbits/s speed=0.0162x elapsed=0:02:56.95    \nframe=  345 fps=1.9 q=28.5 size=     512KiB time=00:00:02.85 bitrate=1467.5kbits/s speed=0.0161x elapsed=0:02:57.48    \nframe=  346 fps=1.9 q=29.4 size=     512KiB time=00:00:02.86 bitrate=1463.3kbits/s speed=0.0161x elapsed=0:02:58.01    \nframe=  346 fps=1.9 q=29.4 size=     512KiB time=00:00:02.86 bitrate=1463.3kbits/s speed=0.0161x elapsed=0:02:58.53    \nframe=  346 fps=1.9 q=29.4 size=     512KiB time=00:00:02.86 bitrate=1463.3kbits/s speed=0.016x elapsed=0:02:59.05    \nframe=  348 fps=1.9 q=28.6 size=     512KiB time=00:00:02.88 bitrate=1454.8kbits/s speed=0.0161x elapsed=0:02:59.56    \nframe=  348 fps=1.9 q=28.6 size=     512KiB time=00:00:02.88 bitrate=1454.8kbits/s speed=0.016x elapsed=0:03:00.09    \nframe=  350 fps=1.9 q=28.8 size=     512KiB time=00:00:02.90 bitrate=1446.4kbits/s speed=0.0161x elapsed=0:03:00.62    \nframe=  350 fps=1.9 q=28.8 size=     512KiB time=00:00:02.90 bitrate=1446.4kbits/s speed=0.016x elapsed=0:03:01.14    \nframe=  350 fps=1.9 q=28.8 size=     512KiB time=00:00:02.90 bitrate=1446.4kbits/s speed=0.016x elapsed=0:03:01.68    \nframe=  351 fps=1.9 q=29.6 size=     512KiB time=00:00:02.90 bitrate=1442.3kbits/s speed=0.016x elapsed=0:03:02.21    \nframe=  352 fps=1.9 q=23.5 size=     512KiB time=00:00:02.91 bitrate=1438.2kbits/s speed=0.016x elapsed=0:03:02.76    \nframe=  352 fps=1.9 q=23.5 size=     512KiB time=00:00:02.91 bitrate=1438.2kbits/s speed=0.0159x elapsed=0:03:03.28    \nframe=  355 fps=1.9 q=28.6 size=     512KiB time=00:00:02.94 bitrate=1425.9kbits/s speed=0.016x elapsed=0:03:03.81    \nframe=  355 fps=1.9 q=28.6 size=     512KiB time=00:00:02.94 bitrate=1425.9kbits/s speed=0.016x elapsed=0:03:04.33    \nframe=  355 fps=1.9 q=28.6 size=     512KiB time=00:00:02.94 bitrate=1425.9kbits/s speed=0.0159x elapsed=0:03:04.85    \nframe=  357 fps=1.9 q=23.6 size=     512KiB time=00:00:02.95 bitrate=1417.9kbits/s speed=0.016x elapsed=0:03:05.40    \nframe=  357 fps=1.9 q=23.6 size=     512KiB time=00:00:02.95 bitrate=1417.9kbits/s speed=0.0159x elapsed=0:03:05.93    \nframe=  357 fps=1.9 q=23.6 size=     512KiB time=00:00:02.95 bitrate=1417.9kbits/s speed=0.0159x elapsed=0:03:06.46    \nframe=  357 fps=1.9 q=23.6 size=     512KiB time=00:00:02.95 bitrate=1417.9kbits/s speed=0.0158x elapsed=0:03:07.01    \nframe=  358 fps=1.9 q=28.8 size=     512KiB time=00:00:02.96 bitrate=1413.9kbits/s speed=0.0158x elapsed=0:03:07.53    \nframe=  360 fps=1.9 q=28.8 size=     512KiB time=00:00:02.98 bitrate=1406.0kbits/s speed=0.0159x elapsed=0:03:08.07    \nframe=  360 fps=1.9 q=28.8 size=     512KiB time=00:00:02.98 bitrate=1406.0kbits/s speed=0.0158x elapsed=0:03:08.60    \nframe=  361 fps=1.9 q=29.7 size=     512KiB time=00:00:02.99 bitrate=1402.1kbits/s speed=0.0158x elapsed=0:03:09.13    \nframe=  362 fps=1.9 q=23.5 size=     512KiB time=00:00:03.00 bitrate=1398.2kbits/s speed=0.0158x elapsed=0:03:09.67    \nframe=  363 fps=1.9 q=28.7 size=     512KiB time=00:00:03.00 bitrate=1394.3kbits/s speed=0.0158x elapsed=0:03:10.18    \nframe=  365 fps=1.9 q=28.7 size=     512KiB time=00:00:03.02 bitrate=1386.7kbits/s speed=0.0159x elapsed=0:03:10.72    \nframe=  366 fps=1.9 q=29.7 size=     512KiB time=00:00:03.03 bitrate=1382.9kbits/s speed=0.0159x elapsed=0:03:11.24    \nframe=  367 fps=1.9 q=23.5 size=     512KiB time=00:00:03.04 bitrate=1379.1kbits/s speed=0.0159x elapsed=0:03:11.76    \nframe=  368 fps=1.9 q=28.8 size=     512KiB time=00:00:03.05 bitrate=1375.3kbits/s speed=0.0159x elapsed=0:03:12.28    \nframe=  370 fps=1.9 q=28.8 size=     512KiB time=00:00:03.06 bitrate=1367.8kbits/s speed=0.0159x elapsed=0:03:12.81    \nframe=  370 fps=1.9 q=28.8 size=     512KiB time=00:00:03.06 bitrate=1367.8kbits/s speed=0.0159x elapsed=0:03:13.36    \nframe=  371 fps=1.9 q=29.8 size=     512KiB time=00:00:03.07 bitrate=1364.1kbits/s speed=0.0159x elapsed=0:03:13.91    \nframe=  371 fps=1.9 q=29.8 size=     512KiB time=00:00:03.07 bitrate=1364.1kbits/s speed=0.0158x elapsed=0:03:14.45    \nframe=  373 fps=1.9 q=28.7 size=     512KiB time=00:00:03.09 bitrate=1356.8kbits/s speed=0.0159x elapsed=0:03:14.98    \nframe=  375 fps=1.9 q=28.7 size=     512KiB time=00:00:03.10 bitrate=1349.5kbits/s speed=0.0159x elapsed=0:03:15.51    \nframe=  376 fps=1.9 q=29.5 size=     512KiB time=00:00:03.11 bitrate=1345.9kbits/s speed=0.0159x elapsed=0:03:16.03    \nframe=  377 fps=1.9 q=23.4 size=     512KiB time=00:00:03.12 bitrate=1342.3kbits/s speed=0.0159x elapsed=0:03:16.54    \nframe=  378 fps=1.9 q=28.7 size=     512KiB time=00:00:03.13 bitrate=1338.7kbits/s speed=0.0159x elapsed=0:03:17.09    \nframe=  380 fps=1.9 q=28.5 size=     512KiB time=00:00:03.15 bitrate=1331.6kbits/s speed=0.0159x elapsed=0:03:17.63    \nframe=  381 fps=1.9 q=29.8 size=     512KiB time=00:00:03.15 bitrate=1328.1kbits/s speed=0.0159x elapsed=0:03:18.15    \nframe=  382 fps=1.9 q=23.5 size=     768KiB time=00:00:03.16 bitrate=1986.9kbits/s speed=0.0159x elapsed=0:03:18.69    \nframe=  382 fps=1.9 q=23.5 size=     768KiB time=00:00:03.16 bitrate=1986.9kbits/s speed=0.0159x elapsed=0:03:19.21    \nframe=  384 fps=1.9 q=29.8 size=     768KiB time=00:00:03.18 bitrate=1976.5kbits/s speed=0.0159x elapsed=0:03:19.75    \nframe=  385 fps=1.9 q=28.8 size=     768KiB time=00:00:03.19 bitrate=1971.3kbits/s speed=0.0159x elapsed=0:03:20.26    \nframe=  385 fps=1.9 q=28.8 size=     768KiB time=00:00:03.19 bitrate=1971.3kbits/s speed=0.0159x elapsed=0:03:20.80    \nframe=  387 fps=1.9 q=23.6 size=     768KiB time=00:00:03.20 bitrate=1966.2kbits/s speed=0.0159x elapsed=0:03:21.31    \nframe=  389 fps=1.9 q=29.8 size=     768KiB time=00:00:03.22 bitrate=1950.9kbits/s speed=0.016x elapsed=0:03:21.85    \nframe=  391 fps=1.9 q=29.7 size=     768KiB time=00:00:03.23 bitrate=1945.9kbits/s speed=0.016x elapsed=0:03:22.39    \nframe=  391 fps=1.9 q=29.7 size=     768KiB time=00:00:03.24 bitrate=1940.9kbits/s speed=0.016x elapsed=0:03:22.94    \nframe=  392 fps=1.9 q=23.5 size=     768KiB time=00:00:03.25 bitrate=1935.9kbits/s speed=0.016x elapsed=0:03:23.46    \nframe=  394 fps=1.9 q=29.6 size=     768KiB time=00:00:03.26 bitrate=1926.1kbits/s speed=0.016x elapsed=0:03:23.97    \nframe=  396 fps=1.9 q=29.4 size=     768KiB time=00:00:03.28 bitrate=1916.3kbits/s speed=0.0161x elapsed=0:03:24.51    \nframe=  396 fps=1.9 q=29.4 size=     768KiB time=00:00:03.28 bitrate=1916.3kbits/s speed=0.016x elapsed=0:03:25.03    \nframe=  396 fps=1.9 q=29.4 size=     768KiB time=00:00:03.28 bitrate=1916.3kbits/s speed=0.016x elapsed=0:03:25.58    \nframe=  396 fps=1.9 q=29.4 size=     768KiB time=00:00:03.28 bitrate=1916.3kbits/s speed=0.0159x elapsed=0:03:26.11    \nframe=  397 fps=1.9 q=23.5 size=     768KiB time=00:00:03.29 bitrate=1911.4kbits/s speed=0.0159x elapsed=0:03:26.64    \nframe=  398 fps=1.9 q=28.8 size=     768KiB time=00:00:03.30 bitrate=1906.6kbits/s speed=0.0159x elapsed=0:03:27.18    \nframe=  400 fps=1.9 q=28.7 size=     768KiB time=00:00:03.31 bitrate=1897.0kbits/s speed=0.016x elapsed=0:03:27.70    \nframe=  402 fps=1.9 q=23.4 size=     768KiB time=00:00:03.33 bitrate=1887.5kbits/s speed=0.016x elapsed=0:03:28.22    \nframe=  403 fps=1.9 q=28.8 size=     768KiB time=00:00:03.34 bitrate=1882.8kbits/s speed=0.016x elapsed=0:03:28.76    \nframe=  404 fps=1.9 q=29.8 size=     768KiB time=00:00:03.35 bitrate=1878.2kbits/s speed=0.016x elapsed=0:03:29.30    \nframe=  405 fps=1.9 q=28.7 size=     768KiB time=00:00:03.35 bitrate=1873.5kbits/s speed=0.016x elapsed=0:03:29.84    \nframe=  406 fps=1.9 q=29.7 size=     768KiB time=00:00:03.36 bitrate=1868.9kbits/s speed=0.016x elapsed=0:03:30.38    \nframe=  406 fps=1.9 q=29.7 size=     768KiB time=00:00:03.36 bitrate=1868.9kbits/s speed=0.016x elapsed=0:03:30.91    \nframe=  409 fps=1.9 q=29.8 size=     768KiB time=00:00:03.39 bitrate=1855.1kbits/s speed=0.016x elapsed=0:03:31.43    \nframe=  410 fps=1.9 q=28.7 size=     768KiB time=00:00:03.40 bitrate=1850.5kbits/s speed=0.016x elapsed=0:03:31.95    \nframe=  411 fps=1.9 q=29.7 size=     768KiB time=00:00:03.40 bitrate=1846.0kbits/s speed=0.016x elapsed=0:03:32.48    \nframe=  412 fps=1.9 q=23.3 size=     768KiB time=00:00:03.41 bitrate=1841.5kbits/s speed=0.016x elapsed=0:03:33.01    \nframe=  412 fps=1.9 q=23.3 size=     768KiB time=00:00:03.41 bitrate=1841.5kbits/s speed=0.016x elapsed=0:03:33.53    \nframe=  414 fps=1.9 q=29.8 size=     768KiB time=00:00:03.43 bitrate=1832.6kbits/s speed=0.016x elapsed=0:03:34.06    \nframe=  414 fps=1.9 q=29.8 size=     768KiB time=00:00:03.43 bitrate=1832.6kbits/s speed=0.016x elapsed=0:03:34.60    \nframe=  414 fps=1.9 q=29.8 size=     768KiB time=00:00:03.43 bitrate=1832.6kbits/s speed=0.016x elapsed=0:03:35.11    \nframe=  415 fps=1.9 q=28.9 size=     768KiB time=00:00:03.44 bitrate=1828.1kbits/s speed=0.016x elapsed=0:03:35.62    \nframe=  417 fps=1.9 q=23.3 size=     768KiB time=00:00:03.45 bitrate=1819.3kbits/s speed=0.016x elapsed=0:03:36.15    \nframe=  418 fps=1.9 q=28.8 size=     768KiB time=00:00:03.46 bitrate=1814.9kbits/s speed=0.016x elapsed=0:03:36.67    \nframe=  418 fps=1.9 q=28.8 size=     768KiB time=00:00:03.46 bitrate=1814.9kbits/s speed=0.016x elapsed=0:03:37.20    \nframe=  421 fps=1.9 q=29.5 size=     768KiB time=00:00:03.48 bitrate=1806.3kbits/s speed=0.016x elapsed=0:03:37.71    \nframe=  421 fps=1.9 q=29.5 size=     768KiB time=00:00:03.49 bitrate=1801.9kbits/s speed=0.016x elapsed=0:03:38.26    \nframe=  421 fps=1.9 q=29.5 size=     768KiB time=00:00:03.49 bitrate=1801.9kbits/s speed=0.016x elapsed=0:03:38.78    \nframe=  422 fps=1.9 q=23.3 size=     768KiB time=00:00:03.50 bitrate=1797.7kbits/s speed=0.016x elapsed=0:03:39.29    \nframe=  423 fps=1.9 q=28.8 size=     768KiB time=00:00:03.50 bitrate=1793.4kbits/s speed=0.016x elapsed=0:03:39.82    \nframe=  425 fps=1.9 q=28.7 size=     768KiB time=00:00:03.52 bitrate=1784.9kbits/s speed=0.016x elapsed=0:03:40.34    \nframe=  425 fps=1.9 q=28.7 size=     768KiB time=00:00:03.52 bitrate=1784.9kbits/s speed=0.016x elapsed=0:03:40.88    \nframe=  425 fps=1.9 q=28.7 size=     768KiB time=00:00:03.52 bitrate=1784.9kbits/s speed=0.0159x elapsed=0:03:41.40    \nframe=  426 fps=1.9 q=29.8 size=     768KiB time=00:00:03.53 bitrate=1780.7kbits/s speed=0.0159x elapsed=0:03:41.93    \nframe=  427 fps=1.9 q=23.3 size=     768KiB time=00:00:03.54 bitrate=1776.5kbits/s speed=0.0159x elapsed=0:03:42.45    \nframe=  428 fps=1.9 q=28.7 size=     768KiB time=00:00:03.55 bitrate=1772.3kbits/s speed=0.0159x elapsed=0:03:42.97    \nframe=  429 fps=1.9 q=29.8 size=     768KiB time=00:00:03.55 bitrate=1768.2kbits/s speed=0.0159x elapsed=0:03:43.48    \nframe=  429 fps=1.9 q=29.8 size=     768KiB time=00:00:03.55 bitrate=1768.2kbits/s speed=0.0159x elapsed=0:03:44.00    \nframe=  431 fps=1.9 q=29.8 size=     768KiB time=00:00:03.57 bitrate=1759.9kbits/s speed=0.0159x elapsed=0:03:44.52    \nframe=  431 fps=1.9 q=29.8 size=     768KiB time=00:00:03.57 bitrate=1759.9kbits/s speed=0.0159x elapsed=0:03:45.05    \nframe=  432 fps=1.9 q=23.3 size=     768KiB time=00:00:03.58 bitrate=1755.9kbits/s speed=0.0159x elapsed=0:03:45.59    \nframe=  434 fps=1.9 q=29.8 size=     768KiB time=00:00:03.60 bitrate=1747.7kbits/s speed=0.0159x elapsed=0:03:46.11    \nframe=  434 fps=1.9 q=29.8 size=     768KiB time=00:00:03.60 bitrate=1747.7kbits/s speed=0.0159x elapsed=0:03:46.63    \nframe=  435 fps=1.9 q=28.8 size=     768KiB time=00:00:03.60 bitrate=1743.7kbits/s speed=0.0159x elapsed=0:03:47.16    \nframe=  436 fps=1.9 q=29.8 size=     768KiB time=00:00:03.61 bitrate=1739.7kbits/s speed=0.0159x elapsed=0:03:47.69    \nframe=  438 fps=1.9 q=28.6 size=     768KiB time=00:00:03.63 bitrate=1731.7kbits/s speed=0.0159x elapsed=0:03:48.21    \nframe=  440 fps=1.9 q=28.8 size=     768KiB time=00:00:03.65 bitrate=1723.8kbits/s speed=0.016x elapsed=0:03:48.74    \nframe=  440 fps=1.9 q=28.8 size=     768KiB time=00:00:03.65 bitrate=1723.8kbits/s speed=0.0159x elapsed=0:03:49.30    \nframe=  440 fps=1.9 q=28.8 size=     768KiB time=00:00:03.65 bitrate=1723.8kbits/s speed=0.0159x elapsed=0:03:49.84    \nframe=  442 fps=1.9 q=23.3 size=     768KiB time=00:00:03.66 bitrate=1715.9kbits/s speed=0.0159x elapsed=0:03:50.35    \nframe=  444 fps=1.9 q=29.6 size=     768KiB time=00:00:03.68 bitrate=1708.2kbits/s speed=0.016x elapsed=0:03:50.87    \nframe=  445 fps=1.9 q=29.6 size=     768KiB time=00:00:03.69 bitrate=1704.3kbits/s speed=0.016x elapsed=0:03:51.40    \nframe=  446 fps=1.9 q=29.8 size=     768KiB time=00:00:03.70 bitrate=1700.5kbits/s speed=0.016x elapsed=0:03:51.92    \nframe=  446 fps=1.9 q=29.8 size=     768KiB time=00:00:03.70 bitrate=1700.5kbits/s speed=0.0159x elapsed=0:03:52.44    \nframe=  447 fps=1.9 q=23.4 size=     768KiB time=00:00:03.70 bitrate=1696.7kbits/s speed=0.0159x elapsed=0:03:52.97    \nframe=  449 fps=1.9 q=29.7 size=     768KiB time=00:00:03.72 bitrate=1689.1kbits/s speed=0.016x elapsed=0:03:53.50    \nframe=  449 fps=1.9 q=29.7 size=     768KiB time=00:00:03.72 bitrate=1689.1kbits/s speed=0.0159x elapsed=0:03:54.02    \nframe=  451 fps=1.9 q=29.8 size=     768KiB time=00:00:03.74 bitrate=1681.6kbits/s speed=0.016x elapsed=0:03:54.56    \nframe=  451 fps=1.9 q=29.8 size=     768KiB time=00:00:03.74 bitrate=1681.6kbits/s speed=0.0159x elapsed=0:03:55.08    \nframe=  452 fps=1.9 q=23.3 size=     768KiB time=00:00:03.75 bitrate=1677.8kbits/s speed=0.0159x elapsed=0:03:55.61    \nframe=  452 fps=1.9 q=23.3 size=     768KiB time=00:00:03.75 bitrate=1677.8kbits/s speed=0.0159x elapsed=0:03:56.16    \nframe=  453 fps=1.9 q=28.5 size=     768KiB time=00:00:03.75 bitrate=1674.1kbits/s speed=0.0159x elapsed=0:03:56.68    \nframe=  454 fps=1.9 q=29.7 size=     768KiB time=00:00:03.76 bitrate=1670.4kbits/s speed=0.0159x elapsed=0:03:57.20    \nframe=  455 fps=1.9 q=29.7 size=     768KiB time=00:00:03.77 bitrate=1666.7kbits/s speed=0.0159x elapsed=0:03:57.72    \nframe=  456 fps=1.9 q=29.7 size=     768KiB time=00:00:03.78 bitrate=1663.0kbits/s speed=0.0159x elapsed=0:03:58.26    \nframe=  457 fps=1.9 q=23.3 size=     768KiB time=00:00:03.79 bitrate=1659.4kbits/s speed=0.0159x elapsed=0:03:58.77    \nframe=  460 fps=1.9 q=29.5 size=     768KiB time=00:00:03.81 bitrate=1648.5kbits/s speed=0.0159x elapsed=0:03:59.29    \nframe=  461 fps=1.9 q=29.7 size=     768KiB time=00:00:03.82 bitrate=1644.9kbits/s speed=0.0159x elapsed=0:03:59.81    \nframe=  462 fps=1.9 q=23.3 size=     768KiB time=00:00:03.83 bitrate=1641.3kbits/s speed=0.0159x elapsed=0:04:00.35    \nframe=  464 fps=1.9 q=29.7 size=     768KiB time=00:00:03.84 bitrate=1637.8kbits/s speed=0.0159x elapsed=0:04:00.86    \nframe=  464 fps=1.9 q=29.7 size=     768KiB time=00:00:03.85 bitrate=1634.2kbits/s speed=0.0159x elapsed=0:04:01.40    \nframe=  465 fps=1.9 q=29.6 size=     768KiB time=00:00:03.85 bitrate=1630.7kbits/s speed=0.0159x elapsed=0:04:01.92    \nframe=  467 fps=1.9 q=23.2 size=     768KiB time=00:00:03.87 bitrate=1623.7kbits/s speed=0.016x elapsed=0:04:02.46    \nframe=  467 fps=1.9 q=23.2 size=     768KiB time=00:00:03.87 bitrate=1623.7kbits/s speed=0.0159x elapsed=0:04:02.98    \nframe=  468 fps=1.9 q=29.5 size=     768KiB time=00:00:03.88 bitrate=1620.2kbits/s speed=0.0159x elapsed=0:04:03.50    \nframe=  469 fps=1.9 q=29.7 size=     768KiB time=00:00:03.89 bitrate=1616.7kbits/s speed=0.0159x elapsed=0:04:04.02    \nframe=  470 fps=1.9 q=29.7 size=     768KiB time=00:00:03.90 bitrate=1613.3kbits/s speed=0.0159x elapsed=0:04:04.57    \nframe=  470 fps=1.9 q=29.7 size=     768KiB time=00:00:03.90 bitrate=1613.3kbits/s speed=0.0159x elapsed=0:04:05.11    \nframe=  472 fps=1.9 q=23.3 size=     768KiB time=00:00:03.91 bitrate=1606.4kbits/s speed=0.0159x elapsed=0:04:05.64    \nframe=  473 fps=1.9 q=29.6 size=     768KiB time=00:00:03.92 bitrate=1603.0kbits/s speed=0.0159x elapsed=0:04:06.20    \nframe=  475 fps=1.9 q=29.6 size=     768KiB time=00:00:03.94 bitrate=1596.2kbits/s speed=0.016x elapsed=0:04:06.71    \nframe=  476 fps=1.9 q=29.7 size=     768KiB time=00:00:03.95 bitrate=1592.9kbits/s speed=0.016x elapsed=0:04:07.24    \nframe=  476 fps=1.9 q=29.7 size=     768KiB time=00:00:03.95 bitrate=1592.9kbits/s speed=0.0159x elapsed=0:04:07.75    \nframe=  477 fps=1.9 q=29.2 size=     768KiB time=00:00:03.95 bitrate=1589.5kbits/s speed=0.0159x elapsed=0:04:08.30    \nframe=  479 fps=1.9 q=34.7 size=     768KiB time=00:00:03.97 bitrate=1582.8kbits/s speed=0.016x elapsed=0:04:08.82    \nframe=  480 fps=1.9 q=33.8 size=     768KiB time=00:00:03.98 bitrate=1579.5kbits/s speed=0.016x elapsed=0:04:09.34    \nframe=  481 fps=1.9 q=33.8 size=     768KiB time=00:00:03.99 bitrate=1576.2kbits/s speed=0.016x elapsed=0:04:09.89    \nframe=  482 fps=1.9 q=29.6 size=     768KiB time=00:00:04.00 bitrate=1573.0kbits/s speed=0.016x elapsed=0:04:10.42    \nframe=  482 fps=1.9 q=29.6 size=     768KiB time=00:00:04.00 bitrate=1573.0kbits/s speed=0.0159x elapsed=0:04:10.95    \nframe=  483 fps=1.9 q=34.7 size=    1024KiB time=00:00:04.00 bitrate=2092.9kbits/s speed=0.0159x elapsed=0:04:11.47    \nframe=  486 fps=1.9 q=34.8 size=    1024KiB time=00:00:04.03 bitrate=2079.9kbits/s speed=0.016x elapsed=0:04:12.04    \nframe=  486 fps=1.9 q=34.8 size=    1024KiB time=00:00:04.03 bitrate=2079.9kbits/s speed=0.016x elapsed=0:04:12.57    \nframe=  488 fps=1.9 q=34.8 size=    1024KiB time=00:00:04.05 bitrate=2071.3kbits/s speed=0.016x elapsed=0:04:13.09    \nframe=  489 fps=1.9 q=34.9 size=    1024KiB time=00:00:04.05 bitrate=2067.1kbits/s speed=0.016x elapsed=0:04:13.64    \nframe=  490 fps=1.9 q=34.8 size=    1024KiB time=00:00:04.06 bitrate=2062.9kbits/s speed=0.016x elapsed=0:04:14.17    \nframe=  491 fps=1.9 q=34.7 size=    1024KiB time=00:00:04.07 bitrate=2058.6kbits/s speed=0.016x elapsed=0:04:14.68    \nframe=  494 fps=1.9 q=34.8 size=    1024KiB time=00:00:04.10 bitrate=2046.1kbits/s speed=0.0161x elapsed=0:04:15.20    \nframe=  494 fps=1.9 q=34.8 size=    1024KiB time=00:00:04.10 bitrate=2046.1kbits/s speed=0.016x elapsed=0:04:15.73    \nframe=  494 fps=1.9 q=34.8 size=    1024KiB time=00:00:04.10 bitrate=2046.1kbits/s speed=0.016x elapsed=0:04:16.26    \nframe=  495 fps=1.9 q=34.8 size=    1024KiB time=00:00:04.10 bitrate=2041.9kbits/s speed=0.016x elapsed=0:04:16.79    \nframe=  495 fps=1.9 q=34.8 size=    1024KiB time=00:00:04.10 bitrate=2041.9kbits/s speed=0.016x elapsed=0:04:17.30    \nframe=  495 fps=1.9 q=34.8 size=    1024KiB time=00:00:04.10 bitrate=2041.9kbits/s speed=0.0159x elapsed=0:04:17.82    \nframe=  496 fps=1.9 q=34.8 size=    1024KiB time=00:00:04.11 bitrate=2037.8kbits/s speed=0.0159x elapsed=0:04:18.35    \nframe=  496 fps=1.9 q=34.8 size=    1024KiB time=00:00:04.11 bitrate=2037.8kbits/s speed=0.0159x elapsed=0:04:18.87    \nframe=  497 fps=1.9 q=23.7 size=    1024KiB time=00:00:04.12 bitrate=2033.7kbits/s speed=0.0159x elapsed=0:04:19.39    \nframe=  499 fps=1.9 q=34.9 size=    1024KiB time=00:00:04.14 bitrate=2025.5kbits/s speed=0.0159x elapsed=0:04:19.92    \nframe=  501 fps=1.9 q=34.8 size=    1024KiB time=00:00:04.15 bitrate=2017.4kbits/s speed=0.016x elapsed=0:04:20.47    \nframe=  501 fps=1.9 q=34.8 size=    1024KiB time=00:00:04.15 bitrate=2017.4kbits/s speed=0.0159x elapsed=0:04:20.99    \nframe=  501 fps=1.9 q=34.8 size=    1024KiB time=00:00:04.15 bitrate=2017.4kbits/s speed=0.0159x elapsed=0:04:21.52    \nframe=  502 fps=1.9 q=24.6 size=    1024KiB time=00:00:04.16 bitrate=2013.4kbits/s speed=0.0159x elapsed=0:04:22.05    \nframe=  505 fps=1.9 q=33.8 size=    1024KiB time=00:00:04.19 bitrate=2001.3kbits/s speed=0.016x elapsed=0:04:22.56    \nframe=  506 fps=1.9 q=33.8 size=    1024KiB time=00:00:04.20 bitrate=1997.4kbits/s speed=0.016x elapsed=0:04:23.12    \nframe=  506 fps=1.9 q=33.8 size=    1024KiB time=00:00:04.20 bitrate=1997.4kbits/s speed=0.0159x elapsed=0:04:23.63    \nframe=  507 fps=1.9 q=25.0 size=    1024KiB time=00:00:04.20 bitrate=1993.4kbits/s speed=0.0159x elapsed=0:04:24.14    \nframe=  509 fps=1.9 q=33.8 size=    1024KiB time=00:00:04.22 bitrate=1985.6kbits/s speed=0.016x elapsed=0:04:24.68    \nframe=  509 fps=1.9 q=33.8 size=    1024KiB time=00:00:04.22 bitrate=1985.6kbits/s speed=0.0159x elapsed=0:04:25.20    \nframe=  511 fps=1.9 q=33.8 size=    1024KiB time=00:00:04.24 bitrate=1977.8kbits/s speed=0.016x elapsed=0:04:25.72    \nframe=  511 fps=1.9 q=33.8 size=    1024KiB time=00:00:04.24 bitrate=1977.8kbits/s speed=0.0159x elapsed=0:04:26.26    \nframe=  513 fps=1.9 q=31.9 size=    1024KiB time=00:00:04.25 bitrate=1970.0kbits/s speed=0.016x elapsed=0:04:26.77    \nframe=  513 fps=1.9 q=31.9 size=    1024KiB time=00:00:04.25 bitrate=1970.0kbits/s speed=0.0159x elapsed=0:04:27.30    \nframe=  515 fps=1.9 q=33.8 size=    1024KiB time=00:00:04.27 bitrate=1962.3kbits/s speed=0.016x elapsed=0:04:27.81    \nframe=  515 fps=1.9 q=33.8 size=    1024KiB time=00:00:04.27 bitrate=1962.3kbits/s speed=0.0159x elapsed=0:04:28.33    \nframe=  516 fps=1.9 q=33.8 size=    1024KiB time=00:00:04.28 bitrate=1958.5kbits/s speed=0.0159x elapsed=0:04:28.86    \nframe=  518 fps=1.9 q=31.9 size=    1024KiB time=00:00:04.30 bitrate=1950.9kbits/s speed=0.016x elapsed=0:04:29.40    \nframe=  519 fps=1.9 q=33.8 size=    1024KiB time=00:00:04.30 bitrate=1947.1kbits/s speed=0.016x elapsed=0:04:29.95    \nframe=  521 fps=1.9 q=33.7 size=    1024KiB time=00:00:04.32 bitrate=1939.6kbits/s speed=0.016x elapsed=0:04:30.53    \nframe=  521 fps=1.9 q=33.7 size=    1024KiB time=00:00:04.32 bitrate=1939.6kbits/s speed=0.016x elapsed=0:04:31.11    \nframe=  521 fps=1.9 q=33.7 size=    1024KiB time=00:00:04.32 bitrate=1939.6kbits/s speed=0.0159x elapsed=0:04:31.64    \nframe=  523 fps=1.9 q=32.7 size=    1024KiB time=00:00:04.34 bitrate=1932.2kbits/s speed=0.016x elapsed=0:04:32.18    \nframe=  525 fps=1.9 q=33.9 size=    1024KiB time=00:00:04.35 bitrate=1924.8kbits/s speed=0.016x elapsed=0:04:32.73    \nframe=  525 fps=1.9 q=33.9 size=    1024KiB time=00:00:04.35 bitrate=1924.8kbits/s speed=0.0159x elapsed=0:04:33.25    \nframe=  526 fps=1.9 q=33.9 size=    1024KiB time=00:00:04.36 bitrate=1921.1kbits/s speed=0.0159x elapsed=0:04:33.78    \nframe=  526 fps=1.9 q=33.9 size=    1024KiB time=00:00:04.36 bitrate=1921.1kbits/s speed=0.0159x elapsed=0:04:34.31    \nframe=  528 fps=1.9 q=32.8 size=    1024KiB time=00:00:04.38 bitrate=1913.8kbits/s speed=0.0159x elapsed=0:04:34.84    \nframe=  529 fps=1.9 q=33.8 size=    1024KiB time=00:00:04.39 bitrate=1910.2kbits/s speed=0.0159x elapsed=0:04:35.36    \nframe=  531 fps=1.9 q=33.8 size=    1024KiB time=00:00:04.40 bitrate=1903.0kbits/s speed=0.016x elapsed=0:04:35.90    \nframe=  531 fps=1.9 q=33.8 size=    1024KiB time=00:00:04.40 bitrate=1903.0kbits/s speed=0.0159x elapsed=0:04:36.43    \nframe=  534 fps=1.9 q=33.8 size=    1024KiB time=00:00:04.43 bitrate=1892.2kbits/s speed=0.016x elapsed=0:04:36.94    \nframe=  534 fps=1.9 q=33.8 size=    1024KiB time=00:00:04.43 bitrate=1892.2kbits/s speed=0.016x elapsed=0:04:37.45    \nframe=  534 fps=1.9 q=33.8 size=    1024KiB time=00:00:04.43 bitrate=1892.2kbits/s speed=0.0159x elapsed=0:04:37.98    \nframe=  536 fps=1.9 q=33.9 size=    1024KiB time=00:00:04.45 bitrate=1885.2kbits/s speed=0.016x elapsed=0:04:38.51    \nframe=  539 fps=1.9 q=33.8 size=    1024KiB time=00:00:04.47 bitrate=1874.6kbits/s speed=0.016x elapsed=0:04:39.09    \nframe=  541 fps=1.9 q=33.8 size=    1024KiB time=00:00:04.49 bitrate=1867.7kbits/s speed=0.0161x elapsed=0:04:39.61    \nframe=  544 fps=1.9 q=33.7 size=    1024KiB time=00:00:04.51 bitrate=1857.3kbits/s speed=0.0161x elapsed=0:04:40.12    \nframe=  545 fps=1.9 q=33.8 size=    1024KiB time=00:00:04.52 bitrate=1853.9kbits/s speed=0.0161x elapsed=0:04:40.66    \nframe=  547 fps=1.9 q=24.7 size=    1024KiB time=00:00:04.54 bitrate=1847.1kbits/s speed=0.0162x elapsed=0:04:41.20    \nframe=  548 fps=1.9 q=32.8 size=    1024KiB time=00:00:04.55 bitrate=1843.7kbits/s speed=0.0161x elapsed=0:04:41.76    \nframe=  549 fps=1.9 q=33.8 size=    1024KiB time=00:00:04.55 bitrate=1840.4kbits/s speed=0.0161x elapsed=0:04:42.27    \nframe=  551 fps=1.9 q=33.8 size=    1024KiB time=00:00:04.57 bitrate=1833.7kbits/s speed=0.0162x elapsed=0:04:42.78    \nframe=  552 fps=1.9 q=24.9 size=    1024KiB time=00:00:04.58 bitrate=1830.3kbits/s speed=0.0162x elapsed=0:04:43.31    \nframe=  554 fps=2.0 q=31.9 size=    1024KiB time=00:00:04.60 bitrate=1823.7kbits/s speed=0.0162x elapsed=0:04:43.83    \nframe=  556 fps=2.0 q=31.8 size=    1024KiB time=00:00:04.61 bitrate=1817.1kbits/s speed=0.0162x elapsed=0:04:44.34    \nframe=  556 fps=2.0 q=31.8 size=    1024KiB time=00:00:04.61 bitrate=1817.1kbits/s speed=0.0162x elapsed=0:04:44.86    \nframe=  557 fps=2.0 q=23.6 size=    1024KiB time=00:00:04.62 bitrate=1813.8kbits/s speed=0.0162x elapsed=0:04:45.39    \nframe=  557 fps=1.9 q=23.6 size=    1024KiB time=00:00:04.62 bitrate=1813.8kbits/s speed=0.0162x elapsed=0:04:45.90    \nframe=  560 fps=2.0 q=30.7 size=    1024KiB time=00:00:04.65 bitrate=1804.1kbits/s speed=0.0162x elapsed=0:04:46.41    \nframe=  561 fps=2.0 q=30.9 size=    1024KiB time=00:00:04.65 bitrate=1800.9kbits/s speed=0.0162x elapsed=0:04:46.92    \nframe=  563 fps=2.0 q=30.8 size=    1024KiB time=00:00:04.67 bitrate=1794.4kbits/s speed=0.0163x elapsed=0:04:47.45    \nframe=  567 fps=2.0 q=23.8 size=    1024KiB time=00:00:04.70 bitrate=1781.7kbits/s speed=0.0164x elapsed=0:04:47.97    \nframe=  569 fps=2.0 q=31.0 size=    1280KiB time=00:00:04.72 bitrate=2219.3kbits/s speed=0.0164x elapsed=0:04:48.48    \nframe=  572 fps=2.0 q=24.0 size=    1280KiB time=00:00:04.75 bitrate=2207.6kbits/s speed=0.0164x elapsed=0:04:49.00    \nframe=  574 fps=2.0 q=30.9 size=    1280KiB time=00:00:04.76 bitrate=2199.9kbits/s speed=0.0165x elapsed=0:04:49.53    \nframe=  576 fps=2.0 q=30.9 size=    1280KiB time=00:00:04.78 bitrate=2192.2kbits/s speed=0.0165x elapsed=0:04:50.07    \nframe=  576 fps=2.0 q=30.9 size=    1280KiB time=00:00:04.78 bitrate=2192.2kbits/s speed=0.0165x elapsed=0:04:50.58    \nframe=  577 fps=2.0 q=23.8 size=    1280KiB time=00:00:04.79 bitrate=2188.4kbits/s speed=0.0165x elapsed=0:04:51.09    \nframe=  579 fps=2.0 q=30.9 size=    1280KiB time=00:00:04.80 bitrate=2180.8kbits/s speed=0.0165x elapsed=0:04:51.64    \nframe=  582 fps=2.0 q=29.6 size=    1280KiB time=00:00:04.83 bitrate=2169.5kbits/s speed=0.0165x elapsed=0:04:52.17    \nframe=  585 fps=2.0 q=30.8 size=    1280KiB time=00:00:04.85 bitrate=2158.4kbits/s speed=0.0166x elapsed=0:04:52.69    \nframe=  585 fps=2.0 q=30.8 size=    1280KiB time=00:00:04.85 bitrate=2158.4kbits/s speed=0.0166x elapsed=0:04:53.22    \nframe=  586 fps=2.0 q=24.5 size=    1280KiB time=00:00:04.86 bitrate=2154.7kbits/s speed=0.0166x elapsed=0:04:53.74    \nframe=  588 fps=2.0 q=30.9 size=    1280KiB time=00:00:04.88 bitrate=2147.3kbits/s speed=0.0166x elapsed=0:04:54.25    \nframe=  590 fps=2.0 q=30.9 size=    1280KiB time=00:00:04.90 bitrate=2140.0kbits/s speed=0.0166x elapsed=0:04:54.76    \nframe=  592 fps=2.0 q=28.5 size=    1280KiB time=00:00:04.91 bitrate=2132.8kbits/s speed=0.0166x elapsed=0:04:55.30    \nframe=  594 fps=2.0 q=30.9 size=    1280KiB time=00:00:04.92 bitrate=2129.2kbits/s speed=0.0166x elapsed=0:04:55.82    \nframe=  594 fps=2.0 q=30.9 size=    1280KiB time=00:00:04.93 bitrate=2125.6kbits/s speed=0.0166x elapsed=0:04:56.35    \nframe=  596 fps=2.0 q=29.5 size=    1280KiB time=00:00:04.95 bitrate=2118.4kbits/s speed=0.0167x elapsed=0:04:56.87    \nframe=  598 fps=2.0 q=30.9 size=    1280KiB time=00:00:04.96 bitrate=2111.3kbits/s speed=0.0167x elapsed=0:04:57.39    \n[mp4 @ 00000216447c9bc0] Starting second pass: moving the moov atom to the beginning of the file\n[out#0/mp4 @ 00000216447c9ac0] video:1348KiB audio:0KiB subtitle:0KiB other streams:0KiB global headers:2KiB muxing overhead: 0.742060%\nframe=  600 fps=2.0 q=30.8 Lsize=    1358KiB time=00:00:04.98 bitrate=2232.4kbits/s speed=0.0167x elapsed=0:04:57.57    \nx265 [info]: frame I:      3, Avg QP:31.17  kb/s: 66728.00\nx265 [info]: frame P:    118, Avg QP:26.04  kb/s: 7984.62 \nx265 [info]: frame B:    479, Avg QP:32.37  kb/s: 376.74  \nx265 [info]: Weighted P-Frames: Y:0.0% UV:0.0%\n\nencoded 600 frames in 297.70s (2.02 fps), 2204.71 kb/s, Avg QP:31.12\n",
  "seconds": 297.9536008834839,
  "probe_out": {}
}